<?xml version="1.0" encoding="utf-8" standalone="no"?>
<!DOCTYPE svg PUBLIC "-//W3C//DTD SVG 1.1//EN"
  "http://www.w3.org/Graphics/SVG/1.1/DTD/svg11.dtd">
<svg xmlns:xlink="http://www.w3.org/1999/xlink" width="576pt" height="288pt" viewBox="0 0 576 288" xmlns="http://www.w3.org/2000/svg" version="1.1">
 <metadata>
  <rdf:RDF xmlns:dc="http://purl.org/dc/elements/1.1/" xmlns:cc="http://creativecommons.org/ns#" xmlns:rdf="http://www.w3.org/1999/02/22-rdf-syntax-ns#">
   <cc:Work>
    <dc:type rdf:resource="http://purl.org/dc/dcmitype/StillImage"/>
    <dc:date>2023-09-10T02:59:52.653653</dc:date>
    <dc:format>image/svg+xml</dc:format>
    <dc:creator>
     <cc:Agent>
      <dc:title>Matplotlib v3.7.2, https://matplotlib.org/</dc:title>
     </cc:Agent>
    </dc:creator>
   </cc:Work>
  </rdf:RDF>
 </metadata>
 <defs>
  <style type="text/css">*{stroke-linejoin: round; stroke-linecap: butt}</style>
 </defs>
 <g id="figure_1">
  <g id="patch_1">
   <path d="M 0 288 
L 576 288 
L 576 0 
L 0 0 
z
" style="fill: #ffffff"/>
  </g>
  <g id="axes_1">
   <g id="patch_2">
    <path d="M 13.665551 271.499854 
L 558.804984 271.499854 
L 558.804984 17.195016 
L 13.665551 17.195016 
z
" style="fill: #ffffff"/>
   </g>
   <g id="line2d_1">
    <path d="M 39.766165 271.499854 
L 39.766165 17.195016 
" clip-path="url(#p93bbbc5ef4)" style="fill: none; stroke: #1f77b4; stroke-width: 1.5; stroke-linecap: square"/>
   </g>
   <g id="line2d_2">
    <path d="M 82.551147 271.499854 
L 82.551147 17.195016 
" clip-path="url(#p93bbbc5ef4)" style="fill: none; stroke: #1f77b4; stroke-width: 1.5; stroke-linecap: square"/>
   </g>
   <g id="line2d_3">
    <path d="M 121.99473 271.499854 
L 121.99473 17.195016 
" clip-path="url(#p93bbbc5ef4)" style="fill: none; stroke: #1f77b4; stroke-width: 1.5; stroke-linecap: square"/>
   </g>
   <g id="line2d_4">
    <path d="M 158.357868 271.499854 
L 158.357868 17.195016 
" clip-path="url(#p93bbbc5ef4)" style="fill: none; stroke: #1f77b4; stroke-width: 1.5; stroke-linecap: square"/>
   </g>
   <g id="line2d_5">
    <path d="M 191.881137 271.499854 
L 191.881137 17.195016 
" clip-path="url(#p93bbbc5ef4)" style="fill: none; stroke: #1f77b4; stroke-width: 1.5; stroke-linecap: square"/>
   </g>
   <g id="line2d_6">
    <path d="M 222.786323 271.499854 
L 222.786323 17.195016 
" clip-path="url(#p93bbbc5ef4)" style="fill: none; stroke: #1f77b4; stroke-width: 1.5; stroke-linecap: square"/>
   </g>
   <g id="line2d_7">
    <path d="M 251.277891 271.499854 
L 251.277891 17.195016 
" clip-path="url(#p93bbbc5ef4)" style="fill: none; stroke: #1f77b4; stroke-width: 1.5; stroke-linecap: square"/>
   </g>
   <g id="line2d_8">
    <path d="M 277.544339 271.499854 
L 277.544339 17.195016 
" clip-path="url(#p93bbbc5ef4)" style="fill: none; stroke: #1f77b4; stroke-width: 1.5; stroke-linecap: square"/>
   </g>
   <g id="line2d_9">
    <path d="M 301.759444 271.499854 
L 301.759444 17.195016 
" clip-path="url(#p93bbbc5ef4)" style="fill: none; stroke: #1f77b4; stroke-width: 1.5; stroke-linecap: square"/>
   </g>
   <g id="line2d_10">
    <path d="M 324.08341 271.499854 
L 324.08341 17.195016 
" clip-path="url(#p93bbbc5ef4)" style="fill: none; stroke: #1f77b4; stroke-width: 1.5; stroke-linecap: square"/>
   </g>
   <g id="line2d_11">
    <path d="M 344.663931 271.499854 
L 344.663931 17.195016 
" clip-path="url(#p93bbbc5ef4)" style="fill: none; stroke: #1f77b4; stroke-width: 1.5; stroke-linecap: square"/>
   </g>
   <g id="line2d_12">
    <path d="M 363.637165 271.499854 
L 363.637165 17.195016 
" clip-path="url(#p93bbbc5ef4)" style="fill: none; stroke: #1f77b4; stroke-width: 1.5; stroke-linecap: square"/>
   </g>
   <g id="line2d_13">
    <path d="M 381.128636 271.499854 
L 381.128636 17.195016 
" clip-path="url(#p93bbbc5ef4)" style="fill: none; stroke: #1f77b4; stroke-width: 1.5; stroke-linecap: square"/>
   </g>
   <g id="line2d_14">
    <path d="M 397.254068 271.499854 
L 397.254068 17.195016 
" clip-path="url(#p93bbbc5ef4)" style="fill: none; stroke: #1f77b4; stroke-width: 1.5; stroke-linecap: square"/>
   </g>
   <g id="line2d_15">
    <path d="M 412.120144 271.499854 
L 412.120144 17.195016 
" clip-path="url(#p93bbbc5ef4)" style="fill: none; stroke: #1f77b4; stroke-width: 1.5; stroke-linecap: square"/>
   </g>
   <g id="line2d_16">
    <path d="M 425.825217 271.499854 
L 425.825217 17.195016 
" clip-path="url(#p93bbbc5ef4)" style="fill: none; stroke: #1f77b4; stroke-width: 1.5; stroke-linecap: square"/>
   </g>
   <g id="line2d_17">
    <path d="M 438.459958 271.499854 
L 438.459958 17.195016 
" clip-path="url(#p93bbbc5ef4)" style="fill: none; stroke: #1f77b4; stroke-width: 1.5; stroke-linecap: square"/>
   </g>
   <g id="line2d_18">
    <path d="M 450.107958 271.499854 
L 450.107958 17.195016 
" clip-path="url(#p93bbbc5ef4)" style="fill: none; stroke: #1f77b4; stroke-width: 1.5; stroke-linecap: square"/>
   </g>
   <g id="line2d_19">
    <path d="M 460.846278 271.499854 
L 460.846278 17.195016 
" clip-path="url(#p93bbbc5ef4)" style="fill: none; stroke: #1f77b4; stroke-width: 1.5; stroke-linecap: square"/>
   </g>
   <g id="line2d_20">
    <path d="M 470.745963 271.499854 
L 470.745963 17.195016 
" clip-path="url(#p93bbbc5ef4)" style="fill: none; stroke: #1f77b4; stroke-width: 1.5; stroke-linecap: square"/>
   </g>
   <g id="line2d_21">
    <path d="M 479.872507 271.499854 
L 479.872507 17.195016 
" clip-path="url(#p93bbbc5ef4)" style="fill: none; stroke: #1f77b4; stroke-width: 1.5; stroke-linecap: square"/>
   </g>
   <g id="line2d_22">
    <path d="M 488.286291 271.499854 
L 488.286291 17.195016 
" clip-path="url(#p93bbbc5ef4)" style="fill: none; stroke: #1f77b4; stroke-width: 1.5; stroke-linecap: square"/>
   </g>
   <g id="line2d_23">
    <path d="M 496.042979 271.499854 
L 496.042979 17.195016 
" clip-path="url(#p93bbbc5ef4)" style="fill: none; stroke: #1f77b4; stroke-width: 1.5; stroke-linecap: square"/>
   </g>
   <g id="line2d_24">
    <path d="M 503.19389 271.499854 
L 503.19389 17.195016 
" clip-path="url(#p93bbbc5ef4)" style="fill: none; stroke: #1f77b4; stroke-width: 1.5; stroke-linecap: square"/>
   </g>
   <g id="line2d_25">
    <path d="M 509.786332 271.499854 
L 509.786332 17.195016 
" clip-path="url(#p93bbbc5ef4)" style="fill: none; stroke: #1f77b4; stroke-width: 1.5; stroke-linecap: square"/>
   </g>
   <g id="line2d_26">
    <path d="M 515.863921 271.499854 
L 515.863921 17.195016 
" clip-path="url(#p93bbbc5ef4)" style="fill: none; stroke: #1f77b4; stroke-width: 1.5; stroke-linecap: square"/>
   </g>
   <g id="line2d_27">
    <path d="M 521.466866 271.499854 
L 521.466866 17.195016 
" clip-path="url(#p93bbbc5ef4)" style="fill: none; stroke: #1f77b4; stroke-width: 1.5; stroke-linecap: square"/>
   </g>
   <g id="line2d_28">
    <path d="M 526.632235 271.499854 
L 526.632235 17.195016 
" clip-path="url(#p93bbbc5ef4)" style="fill: none; stroke: #1f77b4; stroke-width: 1.5; stroke-linecap: square"/>
   </g>
   <g id="line2d_29">
    <path d="M 531.394202 271.499854 
L 531.394202 17.195016 
" clip-path="url(#p93bbbc5ef4)" style="fill: none; stroke: #1f77b4; stroke-width: 1.5; stroke-linecap: square"/>
   </g>
   <g id="line2d_30">
    <path d="M 535.784271 271.499854 
L 535.784271 17.195016 
" clip-path="url(#p93bbbc5ef4)" style="fill: none; stroke: #1f77b4; stroke-width: 1.5; stroke-linecap: square"/>
   </g>
   <g id="line2d_31">
    <path d="M 539.831487 271.499854 
L 539.831487 17.195016 
" clip-path="url(#p93bbbc5ef4)" style="fill: none; stroke: #1f77b4; stroke-width: 1.5; stroke-linecap: square"/>
   </g>
   <g id="line2d_32">
    <path d="M 543.562625 271.499854 
L 543.562625 17.195016 
" clip-path="url(#p93bbbc5ef4)" style="fill: none; stroke: #1f77b4; stroke-width: 1.5; stroke-linecap: square"/>
   </g>
   <g id="line2d_33">
    <path d="M 547.002371 271.499854 
L 547.002371 17.195016 
" clip-path="url(#p93bbbc5ef4)" style="fill: none; stroke: #1f77b4; stroke-width: 1.5; stroke-linecap: square"/>
   </g>
   <g id="line2d_34">
    <path d="M 550.173481 271.499854 
L 550.173481 17.195016 
" clip-path="url(#p93bbbc5ef4)" style="fill: none; stroke: #1f77b4; stroke-width: 1.5; stroke-linecap: square"/>
   </g>
   <g id="mpl_toolkits.axisartist.axis_artist_1">
    <defs>
     <path id="ma2d4e34c1a" d="M 0 0 
L -0 3.5 
" style="stroke: #000000; stroke-width: 0.8"/>
    </defs>
    <g>
     <use xlink:href="#ma2d4e34c1a" x="13.738149" y="271.431216" style="fill: none; stroke: #000000; stroke-width: 0.8"/>
    </g>
    <g>
     <use xlink:href="#ma2d4e34c1a" x="86.336289" y="271.431216" style="fill: none; stroke: #000000; stroke-width: 0.8"/>
    </g>
    <g>
     <use xlink:href="#ma2d4e34c1a" x="158.934429" y="271.431216" style="fill: none; stroke: #000000; stroke-width: 0.8"/>
    </g>
    <g>
     <use xlink:href="#ma2d4e34c1a" x="231.532569" y="271.431216" style="fill: none; stroke: #000000; stroke-width: 0.8"/>
    </g>
    <g>
     <use xlink:href="#ma2d4e34c1a" x="304.130709" y="271.431216" style="fill: none; stroke: #000000; stroke-width: 0.8"/>
    </g>
    <g>
     <use xlink:href="#ma2d4e34c1a" x="376.728849" y="271.431216" style="fill: none; stroke: #000000; stroke-width: 0.8"/>
    </g>
    <g>
     <use xlink:href="#ma2d4e34c1a" x="449.326989" y="271.431216" style="fill: none; stroke: #000000; stroke-width: 0.8"/>
    </g>
    <g>
     <use xlink:href="#ma2d4e34c1a" x="521.925129" y="271.431216" style="fill: none; stroke: #000000; stroke-width: 0.8"/>
    </g>
    <g id="text_1">
     <!-- 0 -->
     <g transform="translate(10.806118 267.799966) scale(0.1 -0.1)">
      <defs>
       <path id="MicrosoftYaHei-30" d="M 284 2325 
Q 284 3606 709 4264 
Q 1134 4922 1941 4922 
Q 3478 4922 3478 2441 
Q 3478 1216 3045 567 
Q 2613 -81 1831 -81 
Q 1094 -81 689 534 
Q 284 1150 284 2325 
z
M 909 2353 
Q 909 425 1888 425 
Q 2850 425 2850 2384 
Q 2850 4413 1906 4413 
Q 909 4413 909 2353 
z
" transform="scale(0.015625)"/>
      </defs>
      <use xlink:href="#MicrosoftYaHei-30"/>
     </g>
    </g>
    <g id="text_2">
     <!-- 1000 -->
     <g transform="translate(74.608164 267.799966) scale(0.1 -0.1)">
      <defs>
       <path id="MicrosoftYaHei-31" d="M 1781 0 
L 1781 4141 
Q 1638 3997 1295 3819 
Q 953 3641 663 3569 
L 663 4169 
Q 1047 4275 1484 4508 
Q 1922 4741 2156 4947 
L 2388 4947 
L 2388 0 
L 1781 0 
z
" transform="scale(0.015625)"/>
      </defs>
      <use xlink:href="#MicrosoftYaHei-31"/>
      <use xlink:href="#MicrosoftYaHei-30" x="58.642578"/>
      <use xlink:href="#MicrosoftYaHei-30" x="117.285156"/>
      <use xlink:href="#MicrosoftYaHei-30" x="175.927734"/>
     </g>
    </g>
    <g id="text_3">
     <!-- 2000 -->
     <g transform="translate(147.206304 267.799966) scale(0.1 -0.1)">
      <defs>
       <path id="MicrosoftYaHei-32" d="M 2666 3572 
Q 2666 3963 2419 4186 
Q 2172 4409 1747 4409 
Q 1447 4409 1140 4256 
Q 834 4103 569 3819 
L 569 4413 
Q 806 4659 1107 4790 
Q 1409 4922 1816 4922 
Q 2472 4922 2872 4570 
Q 3272 4219 3272 3619 
Q 3272 3084 3026 2693 
Q 2781 2303 2188 1894 
Q 1581 1475 1376 1294 
Q 1172 1113 1090 947 
Q 1009 781 1009 544 
L 3416 544 
L 3416 0 
L 372 0 
L 372 241 
Q 372 659 486 951 
Q 600 1244 862 1520 
Q 1125 1797 1681 2184 
Q 2250 2584 2458 2886 
Q 2666 3188 2666 3572 
z
" transform="scale(0.015625)"/>
      </defs>
      <use xlink:href="#MicrosoftYaHei-32"/>
      <use xlink:href="#MicrosoftYaHei-30" x="58.642578"/>
      <use xlink:href="#MicrosoftYaHei-30" x="117.285156"/>
      <use xlink:href="#MicrosoftYaHei-30" x="175.927734"/>
     </g>
    </g>
    <g id="text_4">
     <!-- 3000 -->
     <g transform="translate(219.804444 267.799966) scale(0.1 -0.1)">
      <defs>
       <path id="MicrosoftYaHei-33" d="M 447 809 
Q 944 425 1569 425 
Q 2069 425 2361 670 
Q 2653 916 2653 1328 
Q 2653 2247 1338 2247 
L 934 2247 
L 934 2753 
L 1319 2753 
Q 2484 2753 2484 3616 
Q 2484 4413 1594 4413 
Q 1084 4413 634 4069 
L 634 4647 
Q 1109 4922 1744 4922 
Q 2363 4922 2738 4598 
Q 3113 4275 3113 3759 
Q 3113 2809 2144 2538 
L 2144 2525 
Q 2669 2469 2973 2155 
Q 3278 1841 3278 1372 
Q 3278 719 2808 319 
Q 2338 -81 1556 -81 
Q 869 -81 447 175 
L 447 809 
z
" transform="scale(0.015625)"/>
      </defs>
      <use xlink:href="#MicrosoftYaHei-33"/>
      <use xlink:href="#MicrosoftYaHei-30" x="58.642578"/>
      <use xlink:href="#MicrosoftYaHei-30" x="117.285156"/>
      <use xlink:href="#MicrosoftYaHei-30" x="175.927734"/>
     </g>
    </g>
    <g id="text_5">
     <!-- 4000 -->
     <g transform="translate(292.402584 267.799966) scale(0.1 -0.1)">
      <defs>
       <path id="MicrosoftYaHei-34" d="M 2906 4841 
L 2906 1644 
L 3631 1644 
L 3631 1138 
L 2906 1138 
L 2906 0 
L 2313 0 
L 2313 1138 
L 53 1138 
L 53 1616 
Q 656 2294 1265 3178 
Q 1875 4063 2272 4841 
L 2906 4841 
z
M 741 1644 
L 2313 1644 
L 2313 3950 
Q 1988 3366 1616 2817 
Q 1244 2269 741 1644 
z
" transform="scale(0.015625)"/>
      </defs>
      <use xlink:href="#MicrosoftYaHei-34"/>
      <use xlink:href="#MicrosoftYaHei-30" x="58.642578"/>
      <use xlink:href="#MicrosoftYaHei-30" x="117.285156"/>
      <use xlink:href="#MicrosoftYaHei-30" x="175.927734"/>
     </g>
    </g>
    <g id="text_6">
     <!-- 5000 -->
     <g transform="translate(365.000724 267.799966) scale(0.1 -0.1)">
      <defs>
       <path id="MicrosoftYaHei-35" d="M 3294 1494 
Q 3294 784 2823 350 
Q 2353 -84 1559 -84 
Q 878 -84 544 119 
L 544 744 
Q 1034 425 1544 425 
Q 2050 425 2361 704 
Q 2672 984 2672 1447 
Q 2672 1909 2348 2167 
Q 2025 2425 1434 2425 
Q 978 2425 613 2384 
L 791 4841 
L 3053 4841 
L 3053 4303 
L 1306 4303 
L 1206 2931 
L 1647 2950 
Q 2416 2950 2855 2567 
Q 3294 2184 3294 1494 
z
" transform="scale(0.015625)"/>
      </defs>
      <use xlink:href="#MicrosoftYaHei-35"/>
      <use xlink:href="#MicrosoftYaHei-30" x="58.642578"/>
      <use xlink:href="#MicrosoftYaHei-30" x="117.285156"/>
      <use xlink:href="#MicrosoftYaHei-30" x="175.927734"/>
     </g>
    </g>
    <g id="text_7">
     <!-- 6000 -->
     <g transform="translate(437.598864 267.799966) scale(0.1 -0.1)">
      <defs>
       <path id="MicrosoftYaHei-36" d="M 3181 4219 
Q 2803 4413 2391 4413 
Q 1763 4413 1381 3866 
Q 1000 3319 994 2372 
L 1009 2372 
Q 1353 3038 2106 3038 
Q 2734 3038 3109 2628 
Q 3484 2219 3484 1541 
Q 3484 831 3051 375 
Q 2619 -81 1947 -81 
Q 1209 -81 789 495 
Q 369 1072 369 2131 
Q 369 3413 920 4167 
Q 1472 4922 2372 4922 
Q 2888 4922 3181 4781 
L 3181 4219 
z
M 1031 1584 
Q 1031 1106 1286 765 
Q 1541 425 1963 425 
Q 2363 425 2613 719 
Q 2863 1013 2863 1475 
Q 2863 1975 2627 2253 
Q 2391 2531 1956 2531 
Q 1544 2531 1287 2250 
Q 1031 1969 1031 1584 
z
" transform="scale(0.015625)"/>
      </defs>
      <use xlink:href="#MicrosoftYaHei-36"/>
      <use xlink:href="#MicrosoftYaHei-30" x="58.642578"/>
      <use xlink:href="#MicrosoftYaHei-30" x="117.285156"/>
      <use xlink:href="#MicrosoftYaHei-30" x="175.927734"/>
     </g>
    </g>
    <g id="text_8">
     <!-- 7000 -->
     <g transform="translate(510.197004 267.799966) scale(0.1 -0.1)">
      <defs>
       <path id="MicrosoftYaHei-37" d="M 3422 4463 
Q 2659 3131 2223 1998 
Q 1788 866 1684 0 
L 1047 0 
Q 1163 853 1594 1947 
Q 2025 3041 2747 4300 
L 347 4300 
L 347 4841 
L 3422 4841 
L 3422 4463 
z
" transform="scale(0.015625)"/>
      </defs>
      <use xlink:href="#MicrosoftYaHei-37"/>
      <use xlink:href="#MicrosoftYaHei-30" x="58.642578"/>
      <use xlink:href="#MicrosoftYaHei-30" x="117.285156"/>
      <use xlink:href="#MicrosoftYaHei-30" x="175.927734"/>
     </g>
    </g>
    <g id="patch_3">
     <path d="M 13.665551 271.431216 
L 558.804984 271.431216 
L 567.68695 271.431216 
" style="fill: none; stroke: #000000; stroke-linecap: round"/>
     <path d="M 563.68695 269.431216 
L 567.68695 271.431216 
L 563.68695 273.431216 
" style="fill: none; stroke: #000000; stroke-linecap: round"/>
    </g>
   </g>
   <g id="mpl_toolkits.axisartist.axis_artist_2">
    <defs>
     <path id="m15cd251a6b" d="M 0 0 
L -3.5 -0 
" style="stroke: #000000; stroke-width: 0.8"/>
    </defs>
    <g>
     <use xlink:href="#m15cd251a6b" x="13.738149" y="271.431216" style="fill: none; stroke: #000000; stroke-width: 0.8"/>
    </g>
    <g>
     <use xlink:href="#m15cd251a6b" x="13.738149" y="237.112074" style="fill: none; stroke: #000000; stroke-width: 0.8"/>
    </g>
    <g>
     <use xlink:href="#m15cd251a6b" x="13.738149" y="202.792933" style="fill: none; stroke: #000000; stroke-width: 0.8"/>
    </g>
    <g>
     <use xlink:href="#m15cd251a6b" x="13.738149" y="168.473791" style="fill: none; stroke: #000000; stroke-width: 0.8"/>
    </g>
    <g>
     <use xlink:href="#m15cd251a6b" x="13.738149" y="134.15465" style="fill: none; stroke: #000000; stroke-width: 0.8"/>
    </g>
    <g>
     <use xlink:href="#m15cd251a6b" x="13.738149" y="99.835508" style="fill: none; stroke: #000000; stroke-width: 0.8"/>
    </g>
    <g>
     <use xlink:href="#m15cd251a6b" x="13.738149" y="65.516367" style="fill: none; stroke: #000000; stroke-width: 0.8"/>
    </g>
    <g>
     <use xlink:href="#m15cd251a6b" x="13.738149" y="31.197225" style="fill: none; stroke: #000000; stroke-width: 0.8"/>
    </g>
    <g id="text_9">
     <!-- 0 -->
     <g transform="translate(17.238149 274.185122) scale(0.1 -0.1)">
      <use xlink:href="#MicrosoftYaHei-30"/>
     </g>
    </g>
    <g id="text_10">
     <!-- 500 -->
     <g transform="translate(17.238149 239.865981) scale(0.1 -0.1)">
      <use xlink:href="#MicrosoftYaHei-35"/>
      <use xlink:href="#MicrosoftYaHei-30" x="58.642578"/>
      <use xlink:href="#MicrosoftYaHei-30" x="117.285156"/>
     </g>
    </g>
    <g id="text_11">
     <!-- 1000 -->
     <g transform="translate(17.238149 205.546839) scale(0.1 -0.1)">
      <use xlink:href="#MicrosoftYaHei-31"/>
      <use xlink:href="#MicrosoftYaHei-30" x="58.642578"/>
      <use xlink:href="#MicrosoftYaHei-30" x="117.285156"/>
      <use xlink:href="#MicrosoftYaHei-30" x="175.927734"/>
     </g>
    </g>
    <g id="text_12">
     <!-- 1500 -->
     <g transform="translate(17.238149 171.227698) scale(0.1 -0.1)">
      <use xlink:href="#MicrosoftYaHei-31"/>
      <use xlink:href="#MicrosoftYaHei-35" x="58.642578"/>
      <use xlink:href="#MicrosoftYaHei-30" x="117.285156"/>
      <use xlink:href="#MicrosoftYaHei-30" x="175.927734"/>
     </g>
    </g>
    <g id="text_13">
     <!-- 2000 -->
     <g transform="translate(17.238149 136.908556) scale(0.1 -0.1)">
      <use xlink:href="#MicrosoftYaHei-32"/>
      <use xlink:href="#MicrosoftYaHei-30" x="58.642578"/>
      <use xlink:href="#MicrosoftYaHei-30" x="117.285156"/>
      <use xlink:href="#MicrosoftYaHei-30" x="175.927734"/>
     </g>
    </g>
    <g id="text_14">
     <!-- 2500 -->
     <g transform="translate(17.238149 102.589415) scale(0.1 -0.1)">
      <use xlink:href="#MicrosoftYaHei-32"/>
      <use xlink:href="#MicrosoftYaHei-35" x="58.642578"/>
      <use xlink:href="#MicrosoftYaHei-30" x="117.285156"/>
      <use xlink:href="#MicrosoftYaHei-30" x="175.927734"/>
     </g>
    </g>
    <g id="text_15">
     <!-- 3000 -->
     <g transform="translate(17.238149 68.270273) scale(0.1 -0.1)">
      <use xlink:href="#MicrosoftYaHei-33"/>
      <use xlink:href="#MicrosoftYaHei-30" x="58.642578"/>
      <use xlink:href="#MicrosoftYaHei-30" x="117.285156"/>
      <use xlink:href="#MicrosoftYaHei-30" x="175.927734"/>
     </g>
    </g>
    <g id="text_16">
     <!-- 3500 -->
     <g transform="translate(17.238149 33.951132) scale(0.1 -0.1)">
      <use xlink:href="#MicrosoftYaHei-33"/>
      <use xlink:href="#MicrosoftYaHei-35" x="58.642578"/>
      <use xlink:href="#MicrosoftYaHei-30" x="117.285156"/>
      <use xlink:href="#MicrosoftYaHei-30" x="175.927734"/>
     </g>
    </g>
    <g id="patch_4">
     <path d="M 13.738149 271.499854 
L 13.738149 17.195016 
L 13.738149 8.31305 
" style="fill: none; stroke: #000000; stroke-linecap: round"/>
     <path d="M 11.738149 12.31305 
L 13.738149 8.31305 
L 15.738149 12.31305 
z
" style="stroke: #000000; stroke-linecap: round"/>
    </g>
   </g>
  </g>
 </g>
 <defs>
  <clipPath id="p93bbbc5ef4">
   <rect x="13.665551" y="17.195016" width="545.139433" height="254.304839"/>
  </clipPath>
 </defs>
</svg>
