<?xml version="1.0" encoding="utf-8" standalone="no"?>
<!DOCTYPE svg PUBLIC "-//W3C//DTD SVG 1.1//EN"
  "http://www.w3.org/Graphics/SVG/1.1/DTD/svg11.dtd">
<svg xmlns:xlink="http://www.w3.org/1999/xlink" width="720pt" height="432pt" viewBox="0 0 720 432" xmlns="http://www.w3.org/2000/svg" version="1.1">
 <metadata>
  <rdf:RDF xmlns:dc="http://purl.org/dc/elements/1.1/" xmlns:cc="http://creativecommons.org/ns#" xmlns:rdf="http://www.w3.org/1999/02/22-rdf-syntax-ns#">
   <cc:Work>
    <dc:type rdf:resource="http://purl.org/dc/dcmitype/StillImage"/>
    <dc:date>2023-09-10T09:23:49.263506</dc:date>
    <dc:format>image/svg+xml</dc:format>
    <dc:creator>
     <cc:Agent>
      <dc:title>Matplotlib v3.7.2, https://matplotlib.org/</dc:title>
     </cc:Agent>
    </dc:creator>
   </cc:Work>
  </rdf:RDF>
 </metadata>
 <defs>
  <style type="text/css">*{stroke-linejoin: round; stroke-linecap: butt}</style>
 </defs>
 <g id="figure_1">
  <g id="patch_1">
   <path d="M 0 432 
L 720 432 
L 720 0 
L 0 0 
z
" style="fill: #ffffff"/>
  </g>
  <g id="axes_1">
   <g id="patch_2">
    <path d="M 50.96 387.16 
L 709.2 387.16 
L 709.2 10.8 
L 50.96 10.8 
z
" style="fill: #ffffff"/>
   </g>
   <g id="matplotlib.axis_1">
    <g id="xtick_1">
     <g id="line2d_1">
      <path d="M 128.122105 387.16 
L 128.122105 10.8 
" clip-path="url(#p83b2ec8802)" style="fill: none; stroke: #b0b0b0; stroke-width: 0.8; stroke-linecap: square"/>
     </g>
     <g id="line2d_2">
      <defs>
       <path id="m06f39a9487" d="M 0 0 
L 0 3.5 
" style="stroke: #000000; stroke-width: 0.8"/>
      </defs>
      <g>
       <use xlink:href="#m06f39a9487" x="128.122105" y="387.16" style="stroke: #000000; stroke-width: 0.8"/>
      </g>
     </g>
     <g id="text_1">
      <!-- 2.5 -->
      <g transform="translate(121.054137 402.15375) scale(0.1 -0.1)">
       <defs>
        <path id="MicrosoftYaHei-32" d="M 2666 3572 
Q 2666 3963 2419 4186 
Q 2172 4409 1747 4409 
Q 1447 4409 1140 4256 
Q 834 4103 569 3819 
L 569 4413 
Q 806 4659 1107 4790 
Q 1409 4922 1816 4922 
Q 2472 4922 2872 4570 
Q 3272 4219 3272 3619 
Q 3272 3084 3026 2693 
Q 2781 2303 2188 1894 
Q 1581 1475 1376 1294 
Q 1172 1113 1090 947 
Q 1009 781 1009 544 
L 3416 544 
L 3416 0 
L 372 0 
L 372 241 
Q 372 659 486 951 
Q 600 1244 862 1520 
Q 1125 1797 1681 2184 
Q 2250 2584 2458 2886 
Q 2666 3188 2666 3572 
z
" transform="scale(0.015625)"/>
        <path id="MicrosoftYaHei-2e" d="M 372 322 
Q 372 491 487 606 
Q 603 722 775 722 
Q 950 722 1065 605 
Q 1181 488 1181 322 
Q 1181 159 1065 42 
Q 950 -75 772 -75 
Q 600 -75 486 42 
Q 372 159 372 322 
z
" transform="scale(0.015625)"/>
        <path id="MicrosoftYaHei-35" d="M 3294 1494 
Q 3294 784 2823 350 
Q 2353 -84 1559 -84 
Q 878 -84 544 119 
L 544 744 
Q 1034 425 1544 425 
Q 2050 425 2361 704 
Q 2672 984 2672 1447 
Q 2672 1909 2348 2167 
Q 2025 2425 1434 2425 
Q 978 2425 613 2384 
L 791 4841 
L 3053 4841 
L 3053 4303 
L 1306 4303 
L 1206 2931 
L 1647 2950 
Q 2416 2950 2855 2567 
Q 3294 2184 3294 1494 
z
" transform="scale(0.015625)"/>
       </defs>
       <use xlink:href="#MicrosoftYaHei-32"/>
       <use xlink:href="#MicrosoftYaHei-2e" x="58.642578"/>
       <use xlink:href="#MicrosoftYaHei-35" x="82.714844"/>
      </g>
     </g>
    </g>
    <g id="xtick_2">
     <g id="line2d_3">
      <path d="M 206.858947 387.16 
L 206.858947 10.8 
" clip-path="url(#p83b2ec8802)" style="fill: none; stroke: #b0b0b0; stroke-width: 0.8; stroke-linecap: square"/>
     </g>
     <g id="line2d_4">
      <g>
       <use xlink:href="#m06f39a9487" x="206.858947" y="387.16" style="stroke: #000000; stroke-width: 0.8"/>
      </g>
     </g>
     <g id="text_2">
      <!-- 5.0 -->
      <g transform="translate(199.790979 402.15375) scale(0.1 -0.1)">
       <defs>
        <path id="MicrosoftYaHei-30" d="M 284 2325 
Q 284 3606 709 4264 
Q 1134 4922 1941 4922 
Q 3478 4922 3478 2441 
Q 3478 1216 3045 567 
Q 2613 -81 1831 -81 
Q 1094 -81 689 534 
Q 284 1150 284 2325 
z
M 909 2353 
Q 909 425 1888 425 
Q 2850 425 2850 2384 
Q 2850 4413 1906 4413 
Q 909 4413 909 2353 
z
" transform="scale(0.015625)"/>
       </defs>
       <use xlink:href="#MicrosoftYaHei-35"/>
       <use xlink:href="#MicrosoftYaHei-2e" x="58.642578"/>
       <use xlink:href="#MicrosoftYaHei-30" x="82.714844"/>
      </g>
     </g>
    </g>
    <g id="xtick_3">
     <g id="line2d_5">
      <path d="M 285.595789 387.16 
L 285.595789 10.8 
" clip-path="url(#p83b2ec8802)" style="fill: none; stroke: #b0b0b0; stroke-width: 0.8; stroke-linecap: square"/>
     </g>
     <g id="line2d_6">
      <g>
       <use xlink:href="#m06f39a9487" x="285.595789" y="387.16" style="stroke: #000000; stroke-width: 0.8"/>
      </g>
     </g>
     <g id="text_3">
      <!-- 7.5 -->
      <g transform="translate(278.527821 402.15375) scale(0.1 -0.1)">
       <defs>
        <path id="MicrosoftYaHei-37" d="M 3422 4463 
Q 2659 3131 2223 1998 
Q 1788 866 1684 0 
L 1047 0 
Q 1163 853 1594 1947 
Q 2025 3041 2747 4300 
L 347 4300 
L 347 4841 
L 3422 4841 
L 3422 4463 
z
" transform="scale(0.015625)"/>
       </defs>
       <use xlink:href="#MicrosoftYaHei-37"/>
       <use xlink:href="#MicrosoftYaHei-2e" x="58.642578"/>
       <use xlink:href="#MicrosoftYaHei-35" x="82.714844"/>
      </g>
     </g>
    </g>
    <g id="xtick_4">
     <g id="line2d_7">
      <path d="M 364.332632 387.16 
L 364.332632 10.8 
" clip-path="url(#p83b2ec8802)" style="fill: none; stroke: #b0b0b0; stroke-width: 0.8; stroke-linecap: square"/>
     </g>
     <g id="line2d_8">
      <g>
       <use xlink:href="#m06f39a9487" x="364.332632" y="387.16" style="stroke: #000000; stroke-width: 0.8"/>
      </g>
     </g>
     <g id="text_4">
      <!-- 10.0 -->
      <g transform="translate(354.332632 402.15375) scale(0.1 -0.1)">
       <defs>
        <path id="MicrosoftYaHei-31" d="M 1781 0 
L 1781 4141 
Q 1638 3997 1295 3819 
Q 953 3641 663 3569 
L 663 4169 
Q 1047 4275 1484 4508 
Q 1922 4741 2156 4947 
L 2388 4947 
L 2388 0 
L 1781 0 
z
" transform="scale(0.015625)"/>
       </defs>
       <use xlink:href="#MicrosoftYaHei-31"/>
       <use xlink:href="#MicrosoftYaHei-30" x="58.642578"/>
       <use xlink:href="#MicrosoftYaHei-2e" x="117.285156"/>
       <use xlink:href="#MicrosoftYaHei-30" x="141.357422"/>
      </g>
     </g>
    </g>
    <g id="xtick_5">
     <g id="line2d_9">
      <path d="M 443.069474 387.16 
L 443.069474 10.8 
" clip-path="url(#p83b2ec8802)" style="fill: none; stroke: #b0b0b0; stroke-width: 0.8; stroke-linecap: square"/>
     </g>
     <g id="line2d_10">
      <g>
       <use xlink:href="#m06f39a9487" x="443.069474" y="387.16" style="stroke: #000000; stroke-width: 0.8"/>
      </g>
     </g>
     <g id="text_5">
      <!-- 12.5 -->
      <g transform="translate(433.069474 402.15375) scale(0.1 -0.1)">
       <use xlink:href="#MicrosoftYaHei-31"/>
       <use xlink:href="#MicrosoftYaHei-32" x="58.642578"/>
       <use xlink:href="#MicrosoftYaHei-2e" x="117.285156"/>
       <use xlink:href="#MicrosoftYaHei-35" x="141.357422"/>
      </g>
     </g>
    </g>
    <g id="xtick_6">
     <g id="line2d_11">
      <path d="M 521.806316 387.16 
L 521.806316 10.8 
" clip-path="url(#p83b2ec8802)" style="fill: none; stroke: #b0b0b0; stroke-width: 0.8; stroke-linecap: square"/>
     </g>
     <g id="line2d_12">
      <g>
       <use xlink:href="#m06f39a9487" x="521.806316" y="387.16" style="stroke: #000000; stroke-width: 0.8"/>
      </g>
     </g>
     <g id="text_6">
      <!-- 15.0 -->
      <g transform="translate(511.806316 402.15375) scale(0.1 -0.1)">
       <use xlink:href="#MicrosoftYaHei-31"/>
       <use xlink:href="#MicrosoftYaHei-35" x="58.642578"/>
       <use xlink:href="#MicrosoftYaHei-2e" x="117.285156"/>
       <use xlink:href="#MicrosoftYaHei-30" x="141.357422"/>
      </g>
     </g>
    </g>
    <g id="xtick_7">
     <g id="line2d_13">
      <path d="M 600.543158 387.16 
L 600.543158 10.8 
" clip-path="url(#p83b2ec8802)" style="fill: none; stroke: #b0b0b0; stroke-width: 0.8; stroke-linecap: square"/>
     </g>
     <g id="line2d_14">
      <g>
       <use xlink:href="#m06f39a9487" x="600.543158" y="387.16" style="stroke: #000000; stroke-width: 0.8"/>
      </g>
     </g>
     <g id="text_7">
      <!-- 17.5 -->
      <g transform="translate(590.543158 402.15375) scale(0.1 -0.1)">
       <use xlink:href="#MicrosoftYaHei-31"/>
       <use xlink:href="#MicrosoftYaHei-37" x="58.642578"/>
       <use xlink:href="#MicrosoftYaHei-2e" x="117.285156"/>
       <use xlink:href="#MicrosoftYaHei-35" x="141.357422"/>
      </g>
     </g>
    </g>
    <g id="xtick_8">
     <g id="line2d_15">
      <path d="M 679.28 387.16 
L 679.28 10.8 
" clip-path="url(#p83b2ec8802)" style="fill: none; stroke: #b0b0b0; stroke-width: 0.8; stroke-linecap: square"/>
     </g>
     <g id="line2d_16">
      <g>
       <use xlink:href="#m06f39a9487" x="679.28" y="387.16" style="stroke: #000000; stroke-width: 0.8"/>
      </g>
     </g>
     <g id="text_8">
      <!-- 20.0 -->
      <g transform="translate(669.28 402.15375) scale(0.1 -0.1)">
       <use xlink:href="#MicrosoftYaHei-32"/>
       <use xlink:href="#MicrosoftYaHei-30" x="58.642578"/>
       <use xlink:href="#MicrosoftYaHei-2e" x="117.285156"/>
       <use xlink:href="#MicrosoftYaHei-30" x="141.357422"/>
      </g>
     </g>
    </g>
    <g id="text_9">
     <!-- 总循环次数 -->
     <g transform="translate(355.08 416.633438) scale(0.1 -0.1)">
      <defs>
       <path id="MicrosoftYaHei-603b" d="M 900 4253 
L 3631 4253 
Q 4022 4822 4331 5353 
L 4813 5103 
Q 4500 4675 4175 4253 
L 5500 4253 
L 5500 1703 
L 5000 1703 
L 5000 1978 
L 1400 1978 
L 1400 1703 
L 900 1703 
L 900 4253 
z
M 5000 3803 
L 1400 3803 
L 1400 2428 
L 5000 2428 
L 5000 3803 
z
M 1694 1378 
L 2181 1378 
L 2181 284 
Q 2181 -203 2619 -203 
L 3875 -203 
Q 4244 -203 4338 172 
Q 4394 366 4450 872 
Q 4631 791 4931 684 
Q 4850 209 4750 -97 
Q 4556 -641 3900 -641 
L 2519 -641 
Q 1694 -641 1694 197 
L 1694 1378 
z
M 719 1422 
L 1188 1272 
Q 931 491 538 -334 
Q 338 -247 81 -134 
Q 444 597 719 1422 
z
M 4881 1203 
L 5238 1478 
Q 5813 841 6319 197 
L 5900 -134 
Q 5456 491 4881 1203 
z
M 2663 1591 
L 3044 1841 
Q 3488 1372 3863 841 
L 3444 547 
Q 3069 1109 2663 1591 
z
M 1594 5109 
L 1975 5353 
Q 2350 4959 2650 4541 
L 2225 4266 
Q 1956 4653 1594 5109 
z
" transform="scale(0.015625)"/>
       <path id="MicrosoftYaHei-5faa" d="M 4163 4422 
L 4613 4422 
L 4613 3784 
L 6231 3784 
L 6231 3359 
L 4613 3359 
L 4613 2759 
L 5825 2759 
L 5825 -803 
L 5375 -803 
L 5375 -428 
L 3394 -428 
L 3394 -803 
L 2944 -803 
L 2944 2759 
L 4163 2759 
L 4163 3359 
L 2544 3359 
L 2544 2491 
Q 2550 266 1888 -828 
Q 1700 -628 1463 -466 
Q 2088 378 2088 2441 
L 2088 4828 
Q 4056 4916 5913 5116 
L 5994 4659 
Q 4644 4541 2544 4422 
L 2544 3784 
L 4163 3784 
L 4163 4422 
z
M 81 1647 
Q 806 2391 1419 3559 
L 1825 3334 
Q 1575 2881 1325 2494 
L 1325 -834 
L 869 -834 
L 869 1838 
Q 575 1450 281 1147 
Q 206 1378 81 1647 
z
M 100 3572 
Q 894 4259 1456 5316 
L 1875 5078 
Q 1200 3928 338 3134 
Q 250 3347 100 3572 
z
M 5375 2347 
L 3394 2347 
L 3394 1816 
L 5375 1816 
L 5375 2347 
z
M 3394 897 
L 5375 897 
L 5375 1428 
L 3394 1428 
L 3394 897 
z
M 3394 -16 
L 5375 -16 
L 5375 509 
L 3394 509 
L 3394 -16 
z
" transform="scale(0.015625)"/>
       <path id="MicrosoftYaHei-73af" d="M 2606 4447 
L 2606 4916 
L 6050 4916 
L 6050 4447 
L 4441 4447 
Q 4228 3716 3959 3053 
L 4369 3053 
L 4369 -816 
L 3875 -816 
L 3875 2850 
Q 3247 1381 2338 259 
Q 2175 422 1944 566 
Q 3284 2200 3925 4447 
L 2606 4447 
z
M 94 922 
Q 544 1031 1050 1166 
L 1050 2641 
L 213 2641 
L 213 3091 
L 1050 3091 
L 1050 4241 
L 169 4241 
L 169 4691 
L 2375 4691 
L 2375 4241 
L 1544 4241 
L 1544 3091 
L 2369 3091 
L 2369 2641 
L 1544 2641 
L 1544 1297 
Q 1922 1400 2331 1516 
Q 2313 1284 2325 1084 
Q 1081 691 175 391 
L 94 922 
z
M 4856 2909 
Q 5813 1628 6313 834 
L 5888 509 
Q 5225 1622 4469 2653 
L 4856 2909 
z
" transform="scale(0.015625)"/>
       <path id="MicrosoftYaHei-6b21" d="M 4119 3472 
Q 4113 3159 4091 2856 
Q 4509 728 6319 -284 
Q 6063 -559 5913 -772 
Q 4344 331 3900 1944 
Q 3491 200 1650 -866 
Q 1525 -672 1306 -422 
Q 3225 591 3525 2428 
Q 3613 2878 3619 3472 
L 4119 3472 
z
M 4944 2647 
Q 5225 3166 5450 3766 
L 2991 3766 
Q 2719 3144 2388 2572 
Q 2163 2734 1938 2841 
Q 2669 4034 3000 5309 
L 3506 5166 
Q 3356 4675 3175 4209 
L 5988 4209 
L 5988 3766 
Q 5731 3072 5425 2466 
Q 5213 2572 4944 2647 
z
M 1388 2622 
Q 1675 2403 1875 2284 
Q 1075 859 575 -178 
L 69 153 
Q 713 1128 1388 2622 
z
M 644 4916 
Q 1150 4409 1781 3672 
L 1375 3297 
Q 769 4097 281 4591 
L 644 4916 
z
" transform="scale(0.015625)"/>
       <path id="MicrosoftYaHei-6570" d="M 4175 5303 
L 4675 5228 
Q 4544 4622 4369 4097 
L 6281 4097 
L 6281 3672 
L 5888 3672 
Q 5731 1834 5088 753 
Q 5594 66 6375 -372 
Q 6175 -647 6038 -866 
Q 5275 -372 4769 309 
Q 4194 -403 3400 -928 
Q 3263 -747 3044 -534 
Q 3919 41 4463 772 
Q 3956 1647 3794 2791 
Q 3663 2559 3519 2359 
Q 3394 2541 3206 2759 
Q 3931 3803 4175 5303 
z
M 150 1697 
L 1100 1697 
Q 1238 1934 1369 2184 
L 1819 2041 
Q 1719 1866 1619 1697 
L 3150 1697 
L 3150 1291 
Q 2913 678 2431 216 
Q 2775 53 3131 -109 
L 2856 -541 
Q 2469 -322 2050 -103 
Q 1344 -609 269 -903 
Q 169 -703 56 -466 
Q 969 -259 1600 128 
Q 1063 403 475 691 
Q 675 978 863 1284 
L 150 1284 
L 150 1697 
z
M 219 3847 
L 1656 3847 
L 1656 5247 
L 2119 5247 
L 2119 3847 
L 3319 3847 
L 3319 3434 
L 2119 3434 
L 2119 3053 
L 2306 3266 
Q 2888 2841 3281 2516 
L 2981 2166 
Q 2638 2491 2119 2897 
L 2119 2184 
L 1656 2184 
L 1656 3059 
Q 1088 2466 331 2016 
Q 213 2197 63 2397 
Q 850 2822 1506 3434 
L 219 3434 
L 219 3847 
z
M 5388 3672 
L 4219 3672 
Q 4188 3591 4150 3516 
Q 4263 2191 4775 1247 
Q 5275 2159 5388 3672 
z
M 1088 834 
Q 1531 634 2000 416 
Q 2431 784 2675 1284 
L 1375 1284 
Q 1231 1053 1088 834 
z
M 3038 5091 
L 3425 4834 
Q 3081 4384 2738 4003 
Q 2594 4128 2400 4266 
Q 2725 4647 3038 5091 
z
M 381 4816 
L 738 5059 
Q 1019 4716 1319 4322 
L 931 4047 
Q 656 4453 381 4816 
z
" transform="scale(0.015625)"/>
      </defs>
      <use xlink:href="#MicrosoftYaHei-603b"/>
      <use xlink:href="#MicrosoftYaHei-5faa" x="100"/>
      <use xlink:href="#MicrosoftYaHei-73af" x="200"/>
      <use xlink:href="#MicrosoftYaHei-6b21" x="300"/>
      <use xlink:href="#MicrosoftYaHei-6570" x="400"/>
     </g>
    </g>
   </g>
   <g id="matplotlib.axis_2">
    <g id="ytick_1">
     <g id="line2d_17">
      <path d="M 50.96 370.052727 
L 709.2 370.052727 
" clip-path="url(#p83b2ec8802)" style="fill: none; stroke: #b0b0b0; stroke-width: 0.8; stroke-linecap: square"/>
     </g>
     <g id="line2d_18">
      <defs>
       <path id="mc35ecd8571" d="M 0 0 
L -3.5 0 
" style="stroke: #000000; stroke-width: 0.8"/>
      </defs>
      <g>
       <use xlink:href="#mc35ecd8571" x="50.96" y="370.052727" style="stroke: #000000; stroke-width: 0.8"/>
      </g>
     </g>
     <g id="text_10">
      <!-- 0 -->
      <g transform="translate(38.095938 374.049602) scale(0.1 -0.1)">
       <use xlink:href="#MicrosoftYaHei-30"/>
      </g>
     </g>
    </g>
    <g id="ytick_2">
     <g id="line2d_19">
      <path d="M 50.96 300.082534 
L 709.2 300.082534 
" clip-path="url(#p83b2ec8802)" style="fill: none; stroke: #b0b0b0; stroke-width: 0.8; stroke-linecap: square"/>
     </g>
     <g id="line2d_20">
      <g>
       <use xlink:href="#mc35ecd8571" x="50.96" y="300.082534" style="stroke: #000000; stroke-width: 0.8"/>
      </g>
     </g>
     <g id="text_11">
      <!-- 100 -->
      <g transform="translate(26.367813 304.079409) scale(0.1 -0.1)">
       <use xlink:href="#MicrosoftYaHei-31"/>
       <use xlink:href="#MicrosoftYaHei-30" x="58.642578"/>
       <use xlink:href="#MicrosoftYaHei-30" x="117.285156"/>
      </g>
     </g>
    </g>
    <g id="ytick_3">
     <g id="line2d_21">
      <path d="M 50.96 230.11234 
L 709.2 230.11234 
" clip-path="url(#p83b2ec8802)" style="fill: none; stroke: #b0b0b0; stroke-width: 0.8; stroke-linecap: square"/>
     </g>
     <g id="line2d_22">
      <g>
       <use xlink:href="#mc35ecd8571" x="50.96" y="230.11234" style="stroke: #000000; stroke-width: 0.8"/>
      </g>
     </g>
     <g id="text_12">
      <!-- 200 -->
      <g transform="translate(26.367813 234.109215) scale(0.1 -0.1)">
       <use xlink:href="#MicrosoftYaHei-32"/>
       <use xlink:href="#MicrosoftYaHei-30" x="58.642578"/>
       <use xlink:href="#MicrosoftYaHei-30" x="117.285156"/>
      </g>
     </g>
    </g>
    <g id="ytick_4">
     <g id="line2d_23">
      <path d="M 50.96 160.142147 
L 709.2 160.142147 
" clip-path="url(#p83b2ec8802)" style="fill: none; stroke: #b0b0b0; stroke-width: 0.8; stroke-linecap: square"/>
     </g>
     <g id="line2d_24">
      <g>
       <use xlink:href="#mc35ecd8571" x="50.96" y="160.142147" style="stroke: #000000; stroke-width: 0.8"/>
      </g>
     </g>
     <g id="text_13">
      <!-- 300 -->
      <g transform="translate(26.367813 164.139022) scale(0.1 -0.1)">
       <defs>
        <path id="MicrosoftYaHei-33" d="M 447 809 
Q 944 425 1569 425 
Q 2069 425 2361 670 
Q 2653 916 2653 1328 
Q 2653 2247 1338 2247 
L 934 2247 
L 934 2753 
L 1319 2753 
Q 2484 2753 2484 3616 
Q 2484 4413 1594 4413 
Q 1084 4413 634 4069 
L 634 4647 
Q 1109 4922 1744 4922 
Q 2363 4922 2738 4598 
Q 3113 4275 3113 3759 
Q 3113 2809 2144 2538 
L 2144 2525 
Q 2669 2469 2973 2155 
Q 3278 1841 3278 1372 
Q 3278 719 2808 319 
Q 2338 -81 1556 -81 
Q 869 -81 447 175 
L 447 809 
z
" transform="scale(0.015625)"/>
       </defs>
       <use xlink:href="#MicrosoftYaHei-33"/>
       <use xlink:href="#MicrosoftYaHei-30" x="58.642578"/>
       <use xlink:href="#MicrosoftYaHei-30" x="117.285156"/>
      </g>
     </g>
    </g>
    <g id="ytick_5">
     <g id="line2d_25">
      <path d="M 50.96 90.171953 
L 709.2 90.171953 
" clip-path="url(#p83b2ec8802)" style="fill: none; stroke: #b0b0b0; stroke-width: 0.8; stroke-linecap: square"/>
     </g>
     <g id="line2d_26">
      <g>
       <use xlink:href="#mc35ecd8571" x="50.96" y="90.171953" style="stroke: #000000; stroke-width: 0.8"/>
      </g>
     </g>
     <g id="text_14">
      <!-- 400 -->
      <g transform="translate(26.367813 94.168828) scale(0.1 -0.1)">
       <defs>
        <path id="MicrosoftYaHei-34" d="M 2906 4841 
L 2906 1644 
L 3631 1644 
L 3631 1138 
L 2906 1138 
L 2906 0 
L 2313 0 
L 2313 1138 
L 53 1138 
L 53 1616 
Q 656 2294 1265 3178 
Q 1875 4063 2272 4841 
L 2906 4841 
z
M 741 1644 
L 2313 1644 
L 2313 3950 
Q 1988 3366 1616 2817 
Q 1244 2269 741 1644 
z
" transform="scale(0.015625)"/>
       </defs>
       <use xlink:href="#MicrosoftYaHei-34"/>
       <use xlink:href="#MicrosoftYaHei-30" x="58.642578"/>
       <use xlink:href="#MicrosoftYaHei-30" x="117.285156"/>
      </g>
     </g>
    </g>
    <g id="ytick_6">
     <g id="line2d_27">
      <path d="M 50.96 20.20176 
L 709.2 20.20176 
" clip-path="url(#p83b2ec8802)" style="fill: none; stroke: #b0b0b0; stroke-width: 0.8; stroke-linecap: square"/>
     </g>
     <g id="line2d_28">
      <g>
       <use xlink:href="#mc35ecd8571" x="50.96" y="20.20176" style="stroke: #000000; stroke-width: 0.8"/>
      </g>
     </g>
     <g id="text_15">
      <!-- 500 -->
      <g transform="translate(26.367813 24.198635) scale(0.1 -0.1)">
       <use xlink:href="#MicrosoftYaHei-35"/>
       <use xlink:href="#MicrosoftYaHei-30" x="58.642578"/>
       <use xlink:href="#MicrosoftYaHei-30" x="117.285156"/>
      </g>
     </g>
    </g>
    <g id="text_16">
     <!-- 校验误差值 -->
     <g transform="translate(19.881875 223.98) rotate(-90) scale(0.1 -0.1)">
      <defs>
       <path id="MicrosoftYaHei-6821" d="M 88 1353 
Q 744 2472 1013 3572 
L 156 3572 
L 156 4003 
L 1031 4003 
L 1031 5297 
L 1488 5297 
L 1488 4003 
L 2213 4003 
L 2213 3572 
L 1488 3572 
L 1488 2991 
L 1706 3159 
Q 2150 2597 2319 2334 
L 1981 2084 
Q 1788 2378 1488 2809 
L 1488 -866 
L 1031 -866 
L 1031 2472 
Q 706 1416 288 803 
Q 206 1072 88 1353 
z
M 3344 2416 
Q 3681 1528 4175 959 
Q 4638 1528 4938 2472 
L 5419 2297 
Q 5006 1216 4525 616 
Q 5231 28 6313 -272 
Q 6163 -453 5994 -741 
Q 4869 -347 4188 253 
Q 3469 -434 2288 -891 
Q 2163 -691 1988 -441 
Q 3144 -34 3838 603 
Q 3306 1203 2944 2222 
L 3344 2416 
z
M 2425 4341 
L 4113 4341 
Q 3981 4697 3756 5159 
L 4175 5341 
Q 4419 4909 4588 4522 
L 4181 4341 
L 6188 4341 
L 6188 3903 
L 2425 3903 
L 2425 4341 
z
M 3344 3766 
L 3775 3553 
Q 3225 2603 2625 1809 
Q 2438 1941 2231 2072 
Q 2881 2897 3344 3766 
z
M 4581 3459 
L 4919 3741 
Q 5600 3016 6213 2253 
L 5831 1928 
Q 5288 2684 4581 3459 
z
" transform="scale(0.015625)"/>
       <path id="MicrosoftYaHei-9a8c" d="M 963 4116 
L 819 2397 
L 1450 2397 
L 1613 4503 
L 194 4503 
L 194 4928 
L 2088 4928 
L 1894 2397 
L 2288 2397 
Q 2244 1078 2206 228 
Q 2188 -722 1381 -722 
Q 1044 -722 588 -703 
Q 556 -472 506 -209 
Q 956 -266 1306 -266 
Q 1744 -266 1769 266 
Q 1806 953 1831 1972 
L 331 1972 
L 531 4116 
L 963 4116 
z
M 2338 -103 
L 4594 -103 
Q 5044 1009 5394 2222 
L 5869 2072 
Q 5500 953 5088 -103 
L 6188 -103 
L 6188 -534 
L 2338 -534 
L 2338 -103 
z
M 4606 5278 
L 4488 5078 
Q 5244 3734 6363 3122 
Q 6163 2872 6031 2684 
Q 4931 3497 4238 4641 
Q 3600 3509 2456 2609 
Q 2344 2772 2144 3003 
Q 3388 3866 4050 5278 
L 4606 5278 
z
M 2975 2978 
L 5550 2978 
L 5550 2547 
L 2975 2547 
L 2975 2978 
z
M 3731 2178 
L 4175 2297 
Q 4438 1359 4606 659 
L 4150 528 
Q 3969 1391 3731 2178 
z
M 2656 1897 
L 3094 2034 
Q 3400 1147 3606 453 
L 3144 297 
Q 2938 1097 2656 1897 
z
M 38 1034 
Q 763 1178 1631 1384 
Q 1625 1134 1638 941 
Q 925 791 131 572 
L 38 1034 
z
" transform="scale(0.015625)"/>
       <path id="MicrosoftYaHei-8bef" d="M 1819 1484 
L 3706 1484 
Q 3750 1769 3756 2222 
L 2044 2222 
L 2044 2659 
L 6069 2659 
L 6069 2222 
L 4244 2222 
Q 4234 1753 4203 1484 
L 6288 1484 
L 6288 1047 
L 4356 1047 
Q 4913 -53 6363 -359 
Q 6138 -628 5981 -828 
Q 4538 -406 3984 850 
Q 3569 -272 1969 -847 
Q 1819 -653 1631 -441 
Q 3188 53 3588 1047 
L 1819 1047 
L 1819 1484 
z
M 2325 5034 
L 5750 5034 
L 5750 2991 
L 5275 2991 
L 5275 3272 
L 2800 3272 
L 2800 2991 
L 2325 2991 
L 2325 5034 
z
M 2044 784 
Q 2063 459 2088 247 
Q 1294 -272 925 -584 
L 631 -166 
Q 844 9 844 378 
L 844 2716 
L 100 2716 
L 100 3166 
L 1325 3166 
L 1325 284 
Q 1763 578 2044 784 
z
M 5275 4616 
L 2800 4616 
L 2800 3691 
L 5275 3691 
L 5275 4616 
z
M 831 5153 
Q 1281 4697 1725 4184 
L 1294 3822 
Q 881 4347 450 4822 
L 831 5153 
z
" transform="scale(0.015625)"/>
       <path id="MicrosoftYaHei-5dee" d="M 1094 -172 
L 3419 -172 
L 3419 891 
L 1813 891 
L 1813 1088 
Q 1200 394 331 -197 
Q 206 3 31 247 
Q 1213 1028 1859 1984 
L 200 1984 
L 200 2409 
L 2119 2409 
Q 2275 2694 2409 3028 
L 638 3028 
L 638 3447 
L 2569 3447 
Q 2666 3728 2750 4041 
L 488 4041 
L 488 4466 
L 2075 4466 
Q 1813 4797 1513 5122 
L 1869 5397 
Q 2231 5047 2563 4672 
L 2278 4466 
L 4219 4466 
L 3975 4684 
Q 4344 5047 4631 5403 
L 5056 5122 
Q 4738 4772 4413 4466 
L 6050 4466 
L 6050 4041 
L 3291 4041 
Q 3206 3731 3109 3447 
L 5813 3447 
L 5813 3028 
L 2963 3028 
Q 2838 2700 2697 2409 
L 6294 2409 
L 6294 1984 
L 2469 1984 
Q 2259 1634 1997 1309 
L 5613 1309 
L 5613 891 
L 3925 891 
L 3925 -172 
L 6213 -172 
L 6213 -597 
L 1094 -597 
L 1094 -172 
z
" transform="scale(0.015625)"/>
       <path id="MicrosoftYaHei-503c" d="M 1619 -216 
L 2250 -216 
L 2250 3653 
L 3725 3653 
L 3725 4222 
L 1913 4222 
L 1913 4647 
L 3725 4647 
L 3725 5309 
L 4200 5309 
L 4200 4647 
L 6169 4647 
L 6169 4222 
L 4200 4222 
L 4200 3653 
L 5713 3653 
L 5713 -216 
L 6306 -216 
L 6306 -641 
L 1619 -641 
L 1619 -216 
z
M 69 2247 
Q 906 3497 1369 5278 
L 1831 5141 
Q 1581 4334 1288 3628 
L 1288 -816 
L 831 -816 
L 831 2666 
Q 563 2166 263 1734 
Q 175 1997 69 2247 
z
M 2713 -216 
L 5250 -216 
L 5250 353 
L 2713 353 
L 2713 -216 
z
M 5250 3241 
L 2713 3241 
L 2713 2678 
L 5250 2678 
L 5250 3241 
z
M 2713 1716 
L 5250 1716 
L 5250 2278 
L 2713 2278 
L 2713 1716 
z
M 2713 753 
L 5250 753 
L 5250 1316 
L 2713 1316 
L 2713 753 
z
" transform="scale(0.015625)"/>
      </defs>
      <use xlink:href="#MicrosoftYaHei-6821"/>
      <use xlink:href="#MicrosoftYaHei-9a8c" x="100"/>
      <use xlink:href="#MicrosoftYaHei-8bef" x="200"/>
      <use xlink:href="#MicrosoftYaHei-5dee" x="300"/>
      <use xlink:href="#MicrosoftYaHei-503c" x="400"/>
     </g>
    </g>
   </g>
   <g id="line2d_29">
    <path d="M 80.88 171.792067 
L 112.374737 205.693545 
L 143.869474 310.406531 
L 175.364211 338.948748 
L 206.858947 352.107303 
L 238.353684 369.916769 
L 269.848421 369.997047 
L 301.343158 370.003239 
L 332.837895 370.020046 
L 364.332632 370.027554 
L 395.827368 370.030013 
L 427.322105 370.040804 
L 458.816842 370.050998 
L 490.311579 370.05157 
L 521.806316 370.051756 
L 553.301053 370.052474 
L 584.795789 370.052627 
L 616.290526 370.052705 
L 647.785263 370.052703 
L 679.28 370.052723 
" clip-path="url(#p83b2ec8802)" style="fill: none; stroke: #1f77b4; stroke-width: 1.5; stroke-linecap: square"/>
    <defs>
     <path id="md65d1ac5cd" d="M 0 2.5 
C 0.663008 2.5 1.29895 2.236584 1.767767 1.767767 
C 2.236584 1.29895 2.5 0.663008 2.5 0 
C 2.5 -0.663008 2.236584 -1.29895 1.767767 -1.767767 
C 1.29895 -2.236584 0.663008 -2.5 0 -2.5 
C -0.663008 -2.5 -1.29895 -2.236584 -1.767767 -1.767767 
C -2.236584 -1.29895 -2.5 -0.663008 -2.5 0 
C -2.5 0.663008 -2.236584 1.29895 -1.767767 1.767767 
C -1.29895 2.236584 -0.663008 2.5 0 2.5 
z
" style="stroke: #1f77b4"/>
    </defs>
    <g clip-path="url(#p83b2ec8802)">
     <use xlink:href="#md65d1ac5cd" x="80.88" y="171.792067" style="fill: #1f77b4; stroke: #1f77b4"/>
     <use xlink:href="#md65d1ac5cd" x="112.374737" y="205.693545" style="fill: #1f77b4; stroke: #1f77b4"/>
     <use xlink:href="#md65d1ac5cd" x="143.869474" y="310.406531" style="fill: #1f77b4; stroke: #1f77b4"/>
     <use xlink:href="#md65d1ac5cd" x="175.364211" y="338.948748" style="fill: #1f77b4; stroke: #1f77b4"/>
     <use xlink:href="#md65d1ac5cd" x="206.858947" y="352.107303" style="fill: #1f77b4; stroke: #1f77b4"/>
     <use xlink:href="#md65d1ac5cd" x="238.353684" y="369.916769" style="fill: #1f77b4; stroke: #1f77b4"/>
     <use xlink:href="#md65d1ac5cd" x="269.848421" y="369.997047" style="fill: #1f77b4; stroke: #1f77b4"/>
     <use xlink:href="#md65d1ac5cd" x="301.343158" y="370.003239" style="fill: #1f77b4; stroke: #1f77b4"/>
     <use xlink:href="#md65d1ac5cd" x="332.837895" y="370.020046" style="fill: #1f77b4; stroke: #1f77b4"/>
     <use xlink:href="#md65d1ac5cd" x="364.332632" y="370.027554" style="fill: #1f77b4; stroke: #1f77b4"/>
     <use xlink:href="#md65d1ac5cd" x="395.827368" y="370.030013" style="fill: #1f77b4; stroke: #1f77b4"/>
     <use xlink:href="#md65d1ac5cd" x="427.322105" y="370.040804" style="fill: #1f77b4; stroke: #1f77b4"/>
     <use xlink:href="#md65d1ac5cd" x="458.816842" y="370.050998" style="fill: #1f77b4; stroke: #1f77b4"/>
     <use xlink:href="#md65d1ac5cd" x="490.311579" y="370.05157" style="fill: #1f77b4; stroke: #1f77b4"/>
     <use xlink:href="#md65d1ac5cd" x="521.806316" y="370.051756" style="fill: #1f77b4; stroke: #1f77b4"/>
     <use xlink:href="#md65d1ac5cd" x="553.301053" y="370.052474" style="fill: #1f77b4; stroke: #1f77b4"/>
     <use xlink:href="#md65d1ac5cd" x="584.795789" y="370.052627" style="fill: #1f77b4; stroke: #1f77b4"/>
     <use xlink:href="#md65d1ac5cd" x="616.290526" y="370.052705" style="fill: #1f77b4; stroke: #1f77b4"/>
     <use xlink:href="#md65d1ac5cd" x="647.785263" y="370.052703" style="fill: #1f77b4; stroke: #1f77b4"/>
     <use xlink:href="#md65d1ac5cd" x="679.28" y="370.052723" style="fill: #1f77b4; stroke: #1f77b4"/>
    </g>
   </g>
   <g id="line2d_30">
    <path d="M 80.88 76.329605 
L 112.374737 332.385884 
L 143.869474 357.847797 
L 175.364211 359.694811 
L 206.858947 362.216901 
L 238.353684 367.725446 
L 269.848421 369.380549 
L 301.343158 369.709527 
L 332.837895 369.810728 
L 364.332632 369.852533 
L 395.827368 369.990982 
L 427.322105 370.013437 
L 458.816842 370.034902 
L 490.311579 370.040656 
L 521.806316 370.050577 
L 553.301053 370.052354 
L 584.795789 370.052404 
L 616.290526 370.052649 
L 647.785263 370.052652 
L 679.28 370.052697 
" clip-path="url(#p83b2ec8802)" style="fill: none; stroke: #ff7f0e; stroke-width: 1.5; stroke-linecap: square"/>
    <defs>
     <path id="macd230d021" d="M 0 2.5 
C 0.663008 2.5 1.29895 2.236584 1.767767 1.767767 
C 2.236584 1.29895 2.5 0.663008 2.5 0 
C 2.5 -0.663008 2.236584 -1.29895 1.767767 -1.767767 
C 1.29895 -2.236584 0.663008 -2.5 0 -2.5 
C -0.663008 -2.5 -1.29895 -2.236584 -1.767767 -1.767767 
C -2.236584 -1.29895 -2.5 -0.663008 -2.5 0 
C -2.5 0.663008 -2.236584 1.29895 -1.767767 1.767767 
C -1.29895 2.236584 -0.663008 2.5 0 2.5 
z
" style="stroke: #ff7f0e"/>
    </defs>
    <g clip-path="url(#p83b2ec8802)">
     <use xlink:href="#macd230d021" x="80.88" y="76.329605" style="fill: #ff7f0e; stroke: #ff7f0e"/>
     <use xlink:href="#macd230d021" x="112.374737" y="332.385884" style="fill: #ff7f0e; stroke: #ff7f0e"/>
     <use xlink:href="#macd230d021" x="143.869474" y="357.847797" style="fill: #ff7f0e; stroke: #ff7f0e"/>
     <use xlink:href="#macd230d021" x="175.364211" y="359.694811" style="fill: #ff7f0e; stroke: #ff7f0e"/>
     <use xlink:href="#macd230d021" x="206.858947" y="362.216901" style="fill: #ff7f0e; stroke: #ff7f0e"/>
     <use xlink:href="#macd230d021" x="238.353684" y="367.725446" style="fill: #ff7f0e; stroke: #ff7f0e"/>
     <use xlink:href="#macd230d021" x="269.848421" y="369.380549" style="fill: #ff7f0e; stroke: #ff7f0e"/>
     <use xlink:href="#macd230d021" x="301.343158" y="369.709527" style="fill: #ff7f0e; stroke: #ff7f0e"/>
     <use xlink:href="#macd230d021" x="332.837895" y="369.810728" style="fill: #ff7f0e; stroke: #ff7f0e"/>
     <use xlink:href="#macd230d021" x="364.332632" y="369.852533" style="fill: #ff7f0e; stroke: #ff7f0e"/>
     <use xlink:href="#macd230d021" x="395.827368" y="369.990982" style="fill: #ff7f0e; stroke: #ff7f0e"/>
     <use xlink:href="#macd230d021" x="427.322105" y="370.013437" style="fill: #ff7f0e; stroke: #ff7f0e"/>
     <use xlink:href="#macd230d021" x="458.816842" y="370.034902" style="fill: #ff7f0e; stroke: #ff7f0e"/>
     <use xlink:href="#macd230d021" x="490.311579" y="370.040656" style="fill: #ff7f0e; stroke: #ff7f0e"/>
     <use xlink:href="#macd230d021" x="521.806316" y="370.050577" style="fill: #ff7f0e; stroke: #ff7f0e"/>
     <use xlink:href="#macd230d021" x="553.301053" y="370.052354" style="fill: #ff7f0e; stroke: #ff7f0e"/>
     <use xlink:href="#macd230d021" x="584.795789" y="370.052404" style="fill: #ff7f0e; stroke: #ff7f0e"/>
     <use xlink:href="#macd230d021" x="616.290526" y="370.052649" style="fill: #ff7f0e; stroke: #ff7f0e"/>
     <use xlink:href="#macd230d021" x="647.785263" y="370.052652" style="fill: #ff7f0e; stroke: #ff7f0e"/>
     <use xlink:href="#macd230d021" x="679.28" y="370.052697" style="fill: #ff7f0e; stroke: #ff7f0e"/>
    </g>
   </g>
   <g id="line2d_31">
    <path d="M 80.88 302.865914 
L 112.374737 322.428286 
L 143.869474 361.285212 
L 175.364211 367.368295 
L 206.858947 368.727883 
L 238.353684 369.652263 
L 269.848421 369.711581 
L 301.343158 369.723397 
L 332.837895 369.801059 
L 364.332632 369.897983 
L 395.827368 369.971884 
L 427.322105 370.020423 
L 458.816842 370.039153 
L 490.311579 370.044689 
L 521.806316 370.046614 
L 553.301053 370.048473 
L 584.795789 370.050147 
L 616.290526 370.051818 
L 647.785263 370.052318 
L 679.28 370.052373 
" clip-path="url(#p83b2ec8802)" style="fill: none; stroke: #2ca02c; stroke-width: 1.5; stroke-linecap: square"/>
    <defs>
     <path id="m0ca3ea53a0" d="M 0 2.5 
C 0.663008 2.5 1.29895 2.236584 1.767767 1.767767 
C 2.236584 1.29895 2.5 0.663008 2.5 0 
C 2.5 -0.663008 2.236584 -1.29895 1.767767 -1.767767 
C 1.29895 -2.236584 0.663008 -2.5 0 -2.5 
C -0.663008 -2.5 -1.29895 -2.236584 -1.767767 -1.767767 
C -2.236584 -1.29895 -2.5 -0.663008 -2.5 0 
C -2.5 0.663008 -2.236584 1.29895 -1.767767 1.767767 
C -1.29895 2.236584 -0.663008 2.5 0 2.5 
z
" style="stroke: #2ca02c"/>
    </defs>
    <g clip-path="url(#p83b2ec8802)">
     <use xlink:href="#m0ca3ea53a0" x="80.88" y="302.865914" style="fill: #2ca02c; stroke: #2ca02c"/>
     <use xlink:href="#m0ca3ea53a0" x="112.374737" y="322.428286" style="fill: #2ca02c; stroke: #2ca02c"/>
     <use xlink:href="#m0ca3ea53a0" x="143.869474" y="361.285212" style="fill: #2ca02c; stroke: #2ca02c"/>
     <use xlink:href="#m0ca3ea53a0" x="175.364211" y="367.368295" style="fill: #2ca02c; stroke: #2ca02c"/>
     <use xlink:href="#m0ca3ea53a0" x="206.858947" y="368.727883" style="fill: #2ca02c; stroke: #2ca02c"/>
     <use xlink:href="#m0ca3ea53a0" x="238.353684" y="369.652263" style="fill: #2ca02c; stroke: #2ca02c"/>
     <use xlink:href="#m0ca3ea53a0" x="269.848421" y="369.711581" style="fill: #2ca02c; stroke: #2ca02c"/>
     <use xlink:href="#m0ca3ea53a0" x="301.343158" y="369.723397" style="fill: #2ca02c; stroke: #2ca02c"/>
     <use xlink:href="#m0ca3ea53a0" x="332.837895" y="369.801059" style="fill: #2ca02c; stroke: #2ca02c"/>
     <use xlink:href="#m0ca3ea53a0" x="364.332632" y="369.897983" style="fill: #2ca02c; stroke: #2ca02c"/>
     <use xlink:href="#m0ca3ea53a0" x="395.827368" y="369.971884" style="fill: #2ca02c; stroke: #2ca02c"/>
     <use xlink:href="#m0ca3ea53a0" x="427.322105" y="370.020423" style="fill: #2ca02c; stroke: #2ca02c"/>
     <use xlink:href="#m0ca3ea53a0" x="458.816842" y="370.039153" style="fill: #2ca02c; stroke: #2ca02c"/>
     <use xlink:href="#m0ca3ea53a0" x="490.311579" y="370.044689" style="fill: #2ca02c; stroke: #2ca02c"/>
     <use xlink:href="#m0ca3ea53a0" x="521.806316" y="370.046614" style="fill: #2ca02c; stroke: #2ca02c"/>
     <use xlink:href="#m0ca3ea53a0" x="553.301053" y="370.048473" style="fill: #2ca02c; stroke: #2ca02c"/>
     <use xlink:href="#m0ca3ea53a0" x="584.795789" y="370.050147" style="fill: #2ca02c; stroke: #2ca02c"/>
     <use xlink:href="#m0ca3ea53a0" x="616.290526" y="370.051818" style="fill: #2ca02c; stroke: #2ca02c"/>
     <use xlink:href="#m0ca3ea53a0" x="647.785263" y="370.052318" style="fill: #2ca02c; stroke: #2ca02c"/>
     <use xlink:href="#m0ca3ea53a0" x="679.28" y="370.052373" style="fill: #2ca02c; stroke: #2ca02c"/>
    </g>
   </g>
   <g id="line2d_32">
    <path d="M 80.88 157.602907 
L 112.374737 334.998779 
L 143.869474 353.038631 
L 175.364211 358.24788 
L 206.858947 366.213428 
L 238.353684 369.688637 
L 269.848421 369.989143 
L 301.343158 370.032889 
L 332.837895 370.050813 
L 364.332632 370.051812 
L 395.827368 370.052115 
L 427.322105 370.052608 
L 458.816842 370.052712 
L 490.311579 370.052717 
L 521.806316 370.052725 
L 553.301053 370.052727 
L 584.795789 370.052727 
L 616.290526 370.052727 
L 647.785263 370.052727 
L 679.28 370.052727 
" clip-path="url(#p83b2ec8802)" style="fill: none; stroke: #d62728; stroke-width: 1.5; stroke-linecap: square"/>
    <defs>
     <path id="mdfc22bbbf7" d="M 0 2.5 
C 0.663008 2.5 1.29895 2.236584 1.767767 1.767767 
C 2.236584 1.29895 2.5 0.663008 2.5 0 
C 2.5 -0.663008 2.236584 -1.29895 1.767767 -1.767767 
C 1.29895 -2.236584 0.663008 -2.5 0 -2.5 
C -0.663008 -2.5 -1.29895 -2.236584 -1.767767 -1.767767 
C -2.236584 -1.29895 -2.5 -0.663008 -2.5 0 
C -2.5 0.663008 -2.236584 1.29895 -1.767767 1.767767 
C -1.29895 2.236584 -0.663008 2.5 0 2.5 
z
" style="stroke: #d62728"/>
    </defs>
    <g clip-path="url(#p83b2ec8802)">
     <use xlink:href="#mdfc22bbbf7" x="80.88" y="157.602907" style="fill: #d62728; stroke: #d62728"/>
     <use xlink:href="#mdfc22bbbf7" x="112.374737" y="334.998779" style="fill: #d62728; stroke: #d62728"/>
     <use xlink:href="#mdfc22bbbf7" x="143.869474" y="353.038631" style="fill: #d62728; stroke: #d62728"/>
     <use xlink:href="#mdfc22bbbf7" x="175.364211" y="358.24788" style="fill: #d62728; stroke: #d62728"/>
     <use xlink:href="#mdfc22bbbf7" x="206.858947" y="366.213428" style="fill: #d62728; stroke: #d62728"/>
     <use xlink:href="#mdfc22bbbf7" x="238.353684" y="369.688637" style="fill: #d62728; stroke: #d62728"/>
     <use xlink:href="#mdfc22bbbf7" x="269.848421" y="369.989143" style="fill: #d62728; stroke: #d62728"/>
     <use xlink:href="#mdfc22bbbf7" x="301.343158" y="370.032889" style="fill: #d62728; stroke: #d62728"/>
     <use xlink:href="#mdfc22bbbf7" x="332.837895" y="370.050813" style="fill: #d62728; stroke: #d62728"/>
     <use xlink:href="#mdfc22bbbf7" x="364.332632" y="370.051812" style="fill: #d62728; stroke: #d62728"/>
     <use xlink:href="#mdfc22bbbf7" x="395.827368" y="370.052115" style="fill: #d62728; stroke: #d62728"/>
     <use xlink:href="#mdfc22bbbf7" x="427.322105" y="370.052608" style="fill: #d62728; stroke: #d62728"/>
     <use xlink:href="#mdfc22bbbf7" x="458.816842" y="370.052712" style="fill: #d62728; stroke: #d62728"/>
     <use xlink:href="#mdfc22bbbf7" x="490.311579" y="370.052717" style="fill: #d62728; stroke: #d62728"/>
     <use xlink:href="#mdfc22bbbf7" x="521.806316" y="370.052725" style="fill: #d62728; stroke: #d62728"/>
     <use xlink:href="#mdfc22bbbf7" x="553.301053" y="370.052727" style="fill: #d62728; stroke: #d62728"/>
     <use xlink:href="#mdfc22bbbf7" x="584.795789" y="370.052727" style="fill: #d62728; stroke: #d62728"/>
     <use xlink:href="#mdfc22bbbf7" x="616.290526" y="370.052727" style="fill: #d62728; stroke: #d62728"/>
     <use xlink:href="#mdfc22bbbf7" x="647.785263" y="370.052727" style="fill: #d62728; stroke: #d62728"/>
     <use xlink:href="#mdfc22bbbf7" x="679.28" y="370.052727" style="fill: #d62728; stroke: #d62728"/>
    </g>
   </g>
   <g id="line2d_33">
    <path d="M 80.88 95.041143 
L 112.374737 282.702972 
L 143.869474 357.903982 
L 175.364211 363.51391 
L 206.858947 365.674043 
L 238.353684 366.652646 
L 269.848421 368.222575 
L 301.343158 369.356938 
L 332.837895 369.463974 
L 364.332632 369.916856 
L 395.827368 370.017713 
L 427.322105 370.034143 
L 458.816842 370.045847 
L 490.311579 370.044903 
L 521.806316 370.049736 
L 553.301053 370.050735 
L 584.795789 370.051796 
L 616.290526 370.052025 
L 647.785263 370.051996 
L 679.28 370.052615 
" clip-path="url(#p83b2ec8802)" style="fill: none; stroke: #9467bd; stroke-width: 1.5; stroke-linecap: square"/>
    <defs>
     <path id="m971f835d76" d="M 0 2.5 
C 0.663008 2.5 1.29895 2.236584 1.767767 1.767767 
C 2.236584 1.29895 2.5 0.663008 2.5 0 
C 2.5 -0.663008 2.236584 -1.29895 1.767767 -1.767767 
C 1.29895 -2.236584 0.663008 -2.5 0 -2.5 
C -0.663008 -2.5 -1.29895 -2.236584 -1.767767 -1.767767 
C -2.236584 -1.29895 -2.5 -0.663008 -2.5 0 
C -2.5 0.663008 -2.236584 1.29895 -1.767767 1.767767 
C -1.29895 2.236584 -0.663008 2.5 0 2.5 
z
" style="stroke: #9467bd"/>
    </defs>
    <g clip-path="url(#p83b2ec8802)">
     <use xlink:href="#m971f835d76" x="80.88" y="95.041143" style="fill: #9467bd; stroke: #9467bd"/>
     <use xlink:href="#m971f835d76" x="112.374737" y="282.702972" style="fill: #9467bd; stroke: #9467bd"/>
     <use xlink:href="#m971f835d76" x="143.869474" y="357.903982" style="fill: #9467bd; stroke: #9467bd"/>
     <use xlink:href="#m971f835d76" x="175.364211" y="363.51391" style="fill: #9467bd; stroke: #9467bd"/>
     <use xlink:href="#m971f835d76" x="206.858947" y="365.674043" style="fill: #9467bd; stroke: #9467bd"/>
     <use xlink:href="#m971f835d76" x="238.353684" y="366.652646" style="fill: #9467bd; stroke: #9467bd"/>
     <use xlink:href="#m971f835d76" x="269.848421" y="368.222575" style="fill: #9467bd; stroke: #9467bd"/>
     <use xlink:href="#m971f835d76" x="301.343158" y="369.356938" style="fill: #9467bd; stroke: #9467bd"/>
     <use xlink:href="#m971f835d76" x="332.837895" y="369.463974" style="fill: #9467bd; stroke: #9467bd"/>
     <use xlink:href="#m971f835d76" x="364.332632" y="369.916856" style="fill: #9467bd; stroke: #9467bd"/>
     <use xlink:href="#m971f835d76" x="395.827368" y="370.017713" style="fill: #9467bd; stroke: #9467bd"/>
     <use xlink:href="#m971f835d76" x="427.322105" y="370.034143" style="fill: #9467bd; stroke: #9467bd"/>
     <use xlink:href="#m971f835d76" x="458.816842" y="370.045847" style="fill: #9467bd; stroke: #9467bd"/>
     <use xlink:href="#m971f835d76" x="490.311579" y="370.044903" style="fill: #9467bd; stroke: #9467bd"/>
     <use xlink:href="#m971f835d76" x="521.806316" y="370.049736" style="fill: #9467bd; stroke: #9467bd"/>
     <use xlink:href="#m971f835d76" x="553.301053" y="370.050735" style="fill: #9467bd; stroke: #9467bd"/>
     <use xlink:href="#m971f835d76" x="584.795789" y="370.051796" style="fill: #9467bd; stroke: #9467bd"/>
     <use xlink:href="#m971f835d76" x="616.290526" y="370.052025" style="fill: #9467bd; stroke: #9467bd"/>
     <use xlink:href="#m971f835d76" x="647.785263" y="370.051996" style="fill: #9467bd; stroke: #9467bd"/>
     <use xlink:href="#m971f835d76" x="679.28" y="370.052615" style="fill: #9467bd; stroke: #9467bd"/>
    </g>
   </g>
   <g id="line2d_34">
    <path d="M 80.88 277.222351 
L 112.374737 357.830485 
L 143.869474 369.072618 
L 175.364211 369.268643 
L 206.858947 369.995931 
L 238.353684 370.043647 
L 269.848421 370.048865 
L 301.343158 370.052534 
L 332.837895 370.052603 
L 364.332632 370.052663 
L 395.827368 370.052717 
L 427.322105 370.052723 
L 458.816842 370.052723 
L 490.311579 370.052727 
L 521.806316 370.052727 
L 553.301053 370.052727 
L 584.795789 370.052727 
L 616.290526 370.052727 
L 647.785263 370.052727 
L 679.28 370.052727 
" clip-path="url(#p83b2ec8802)" style="fill: none; stroke: #8c564b; stroke-width: 1.5; stroke-linecap: square"/>
    <defs>
     <path id="m0116ce152a" d="M 0 2.5 
C 0.663008 2.5 1.29895 2.236584 1.767767 1.767767 
C 2.236584 1.29895 2.5 0.663008 2.5 0 
C 2.5 -0.663008 2.236584 -1.29895 1.767767 -1.767767 
C 1.29895 -2.236584 0.663008 -2.5 0 -2.5 
C -0.663008 -2.5 -1.29895 -2.236584 -1.767767 -1.767767 
C -2.236584 -1.29895 -2.5 -0.663008 -2.5 0 
C -2.5 0.663008 -2.236584 1.29895 -1.767767 1.767767 
C -1.29895 2.236584 -0.663008 2.5 0 2.5 
z
" style="stroke: #8c564b"/>
    </defs>
    <g clip-path="url(#p83b2ec8802)">
     <use xlink:href="#m0116ce152a" x="80.88" y="277.222351" style="fill: #8c564b; stroke: #8c564b"/>
     <use xlink:href="#m0116ce152a" x="112.374737" y="357.830485" style="fill: #8c564b; stroke: #8c564b"/>
     <use xlink:href="#m0116ce152a" x="143.869474" y="369.072618" style="fill: #8c564b; stroke: #8c564b"/>
     <use xlink:href="#m0116ce152a" x="175.364211" y="369.268643" style="fill: #8c564b; stroke: #8c564b"/>
     <use xlink:href="#m0116ce152a" x="206.858947" y="369.995931" style="fill: #8c564b; stroke: #8c564b"/>
     <use xlink:href="#m0116ce152a" x="238.353684" y="370.043647" style="fill: #8c564b; stroke: #8c564b"/>
     <use xlink:href="#m0116ce152a" x="269.848421" y="370.048865" style="fill: #8c564b; stroke: #8c564b"/>
     <use xlink:href="#m0116ce152a" x="301.343158" y="370.052534" style="fill: #8c564b; stroke: #8c564b"/>
     <use xlink:href="#m0116ce152a" x="332.837895" y="370.052603" style="fill: #8c564b; stroke: #8c564b"/>
     <use xlink:href="#m0116ce152a" x="364.332632" y="370.052663" style="fill: #8c564b; stroke: #8c564b"/>
     <use xlink:href="#m0116ce152a" x="395.827368" y="370.052717" style="fill: #8c564b; stroke: #8c564b"/>
     <use xlink:href="#m0116ce152a" x="427.322105" y="370.052723" style="fill: #8c564b; stroke: #8c564b"/>
     <use xlink:href="#m0116ce152a" x="458.816842" y="370.052723" style="fill: #8c564b; stroke: #8c564b"/>
     <use xlink:href="#m0116ce152a" x="490.311579" y="370.052727" style="fill: #8c564b; stroke: #8c564b"/>
     <use xlink:href="#m0116ce152a" x="521.806316" y="370.052727" style="fill: #8c564b; stroke: #8c564b"/>
     <use xlink:href="#m0116ce152a" x="553.301053" y="370.052727" style="fill: #8c564b; stroke: #8c564b"/>
     <use xlink:href="#m0116ce152a" x="584.795789" y="370.052727" style="fill: #8c564b; stroke: #8c564b"/>
     <use xlink:href="#m0116ce152a" x="616.290526" y="370.052727" style="fill: #8c564b; stroke: #8c564b"/>
     <use xlink:href="#m0116ce152a" x="647.785263" y="370.052727" style="fill: #8c564b; stroke: #8c564b"/>
     <use xlink:href="#m0116ce152a" x="679.28" y="370.052727" style="fill: #8c564b; stroke: #8c564b"/>
    </g>
   </g>
   <g id="line2d_35">
    <path d="M 80.88 222.996253 
L 112.374737 309.866352 
L 143.869474 320.22621 
L 175.364211 337.699622 
L 206.858947 349.190659 
L 238.353684 355.657371 
L 269.848421 361.97975 
L 301.343158 364.323146 
L 332.837895 369.596584 
L 364.332632 369.928023 
L 395.827368 369.956806 
L 427.322105 370.050716 
L 458.816842 370.052223 
L 490.311579 370.05247 
L 521.806316 370.052594 
L 553.301053 370.052725 
L 584.795789 370.052726 
L 616.290526 370.052726 
L 647.785263 370.052727 
L 679.28 370.052727 
" clip-path="url(#p83b2ec8802)" style="fill: none; stroke: #e377c2; stroke-width: 1.5; stroke-linecap: square"/>
    <defs>
     <path id="mc93271231a" d="M 0 2.5 
C 0.663008 2.5 1.29895 2.236584 1.767767 1.767767 
C 2.236584 1.29895 2.5 0.663008 2.5 0 
C 2.5 -0.663008 2.236584 -1.29895 1.767767 -1.767767 
C 1.29895 -2.236584 0.663008 -2.5 0 -2.5 
C -0.663008 -2.5 -1.29895 -2.236584 -1.767767 -1.767767 
C -2.236584 -1.29895 -2.5 -0.663008 -2.5 0 
C -2.5 0.663008 -2.236584 1.29895 -1.767767 1.767767 
C -1.29895 2.236584 -0.663008 2.5 0 2.5 
z
" style="stroke: #e377c2"/>
    </defs>
    <g clip-path="url(#p83b2ec8802)">
     <use xlink:href="#mc93271231a" x="80.88" y="222.996253" style="fill: #e377c2; stroke: #e377c2"/>
     <use xlink:href="#mc93271231a" x="112.374737" y="309.866352" style="fill: #e377c2; stroke: #e377c2"/>
     <use xlink:href="#mc93271231a" x="143.869474" y="320.22621" style="fill: #e377c2; stroke: #e377c2"/>
     <use xlink:href="#mc93271231a" x="175.364211" y="337.699622" style="fill: #e377c2; stroke: #e377c2"/>
     <use xlink:href="#mc93271231a" x="206.858947" y="349.190659" style="fill: #e377c2; stroke: #e377c2"/>
     <use xlink:href="#mc93271231a" x="238.353684" y="355.657371" style="fill: #e377c2; stroke: #e377c2"/>
     <use xlink:href="#mc93271231a" x="269.848421" y="361.97975" style="fill: #e377c2; stroke: #e377c2"/>
     <use xlink:href="#mc93271231a" x="301.343158" y="364.323146" style="fill: #e377c2; stroke: #e377c2"/>
     <use xlink:href="#mc93271231a" x="332.837895" y="369.596584" style="fill: #e377c2; stroke: #e377c2"/>
     <use xlink:href="#mc93271231a" x="364.332632" y="369.928023" style="fill: #e377c2; stroke: #e377c2"/>
     <use xlink:href="#mc93271231a" x="395.827368" y="369.956806" style="fill: #e377c2; stroke: #e377c2"/>
     <use xlink:href="#mc93271231a" x="427.322105" y="370.050716" style="fill: #e377c2; stroke: #e377c2"/>
     <use xlink:href="#mc93271231a" x="458.816842" y="370.052223" style="fill: #e377c2; stroke: #e377c2"/>
     <use xlink:href="#mc93271231a" x="490.311579" y="370.05247" style="fill: #e377c2; stroke: #e377c2"/>
     <use xlink:href="#mc93271231a" x="521.806316" y="370.052594" style="fill: #e377c2; stroke: #e377c2"/>
     <use xlink:href="#mc93271231a" x="553.301053" y="370.052725" style="fill: #e377c2; stroke: #e377c2"/>
     <use xlink:href="#mc93271231a" x="584.795789" y="370.052726" style="fill: #e377c2; stroke: #e377c2"/>
     <use xlink:href="#mc93271231a" x="616.290526" y="370.052726" style="fill: #e377c2; stroke: #e377c2"/>
     <use xlink:href="#mc93271231a" x="647.785263" y="370.052727" style="fill: #e377c2; stroke: #e377c2"/>
     <use xlink:href="#mc93271231a" x="679.28" y="370.052727" style="fill: #e377c2; stroke: #e377c2"/>
    </g>
   </g>
   <g id="line2d_36">
    <path d="M 80.88 214.25976 
L 112.374737 295.713702 
L 143.869474 334.34691 
L 175.364211 338.354193 
L 206.858947 348.562848 
L 238.353684 362.499782 
L 269.848421 363.798226 
L 301.343158 369.723697 
L 332.837895 369.826343 
L 364.332632 369.96783 
L 395.827368 370.017497 
L 427.322105 370.036744 
L 458.816842 370.050932 
L 490.311579 370.052667 
L 521.806316 370.052693 
L 553.301053 370.052711 
L 584.795789 370.052714 
L 616.290526 370.052717 
L 647.785263 370.052724 
L 679.28 370.052725 
" clip-path="url(#p83b2ec8802)" style="fill: none; stroke: #7f7f7f; stroke-width: 1.5; stroke-linecap: square"/>
    <defs>
     <path id="m3fd43f0489" d="M 0 2.5 
C 0.663008 2.5 1.29895 2.236584 1.767767 1.767767 
C 2.236584 1.29895 2.5 0.663008 2.5 0 
C 2.5 -0.663008 2.236584 -1.29895 1.767767 -1.767767 
C 1.29895 -2.236584 0.663008 -2.5 0 -2.5 
C -0.663008 -2.5 -1.29895 -2.236584 -1.767767 -1.767767 
C -2.236584 -1.29895 -2.5 -0.663008 -2.5 0 
C -2.5 0.663008 -2.236584 1.29895 -1.767767 1.767767 
C -1.29895 2.236584 -0.663008 2.5 0 2.5 
z
" style="stroke: #7f7f7f"/>
    </defs>
    <g clip-path="url(#p83b2ec8802)">
     <use xlink:href="#m3fd43f0489" x="80.88" y="214.25976" style="fill: #7f7f7f; stroke: #7f7f7f"/>
     <use xlink:href="#m3fd43f0489" x="112.374737" y="295.713702" style="fill: #7f7f7f; stroke: #7f7f7f"/>
     <use xlink:href="#m3fd43f0489" x="143.869474" y="334.34691" style="fill: #7f7f7f; stroke: #7f7f7f"/>
     <use xlink:href="#m3fd43f0489" x="175.364211" y="338.354193" style="fill: #7f7f7f; stroke: #7f7f7f"/>
     <use xlink:href="#m3fd43f0489" x="206.858947" y="348.562848" style="fill: #7f7f7f; stroke: #7f7f7f"/>
     <use xlink:href="#m3fd43f0489" x="238.353684" y="362.499782" style="fill: #7f7f7f; stroke: #7f7f7f"/>
     <use xlink:href="#m3fd43f0489" x="269.848421" y="363.798226" style="fill: #7f7f7f; stroke: #7f7f7f"/>
     <use xlink:href="#m3fd43f0489" x="301.343158" y="369.723697" style="fill: #7f7f7f; stroke: #7f7f7f"/>
     <use xlink:href="#m3fd43f0489" x="332.837895" y="369.826343" style="fill: #7f7f7f; stroke: #7f7f7f"/>
     <use xlink:href="#m3fd43f0489" x="364.332632" y="369.96783" style="fill: #7f7f7f; stroke: #7f7f7f"/>
     <use xlink:href="#m3fd43f0489" x="395.827368" y="370.017497" style="fill: #7f7f7f; stroke: #7f7f7f"/>
     <use xlink:href="#m3fd43f0489" x="427.322105" y="370.036744" style="fill: #7f7f7f; stroke: #7f7f7f"/>
     <use xlink:href="#m3fd43f0489" x="458.816842" y="370.050932" style="fill: #7f7f7f; stroke: #7f7f7f"/>
     <use xlink:href="#m3fd43f0489" x="490.311579" y="370.052667" style="fill: #7f7f7f; stroke: #7f7f7f"/>
     <use xlink:href="#m3fd43f0489" x="521.806316" y="370.052693" style="fill: #7f7f7f; stroke: #7f7f7f"/>
     <use xlink:href="#m3fd43f0489" x="553.301053" y="370.052711" style="fill: #7f7f7f; stroke: #7f7f7f"/>
     <use xlink:href="#m3fd43f0489" x="584.795789" y="370.052714" style="fill: #7f7f7f; stroke: #7f7f7f"/>
     <use xlink:href="#m3fd43f0489" x="616.290526" y="370.052717" style="fill: #7f7f7f; stroke: #7f7f7f"/>
     <use xlink:href="#m3fd43f0489" x="647.785263" y="370.052724" style="fill: #7f7f7f; stroke: #7f7f7f"/>
     <use xlink:href="#m3fd43f0489" x="679.28" y="370.052725" style="fill: #7f7f7f; stroke: #7f7f7f"/>
    </g>
   </g>
   <g id="line2d_37">
    <path d="M 80.88 27.907273 
L 112.374737 200.324019 
L 143.869474 232.012683 
L 175.364211 281.087284 
L 206.858947 316.086689 
L 238.353684 336.440165 
L 269.848421 357.682071 
L 301.343158 358.873312 
L 332.837895 368.334558 
L 364.332632 368.553122 
L 395.827368 369.059954 
L 427.322105 369.670829 
L 458.816842 369.702073 
L 490.311579 369.95119 
L 521.806316 369.963318 
L 553.301053 370.029921 
L 584.795789 370.048571 
L 616.290526 370.051033 
L 647.785263 370.051691 
L 679.28 370.052256 
" clip-path="url(#p83b2ec8802)" style="fill: none; stroke: #bcbd22; stroke-width: 1.5; stroke-linecap: square"/>
    <defs>
     <path id="m309003a961" d="M 0 2.5 
C 0.663008 2.5 1.29895 2.236584 1.767767 1.767767 
C 2.236584 1.29895 2.5 0.663008 2.5 0 
C 2.5 -0.663008 2.236584 -1.29895 1.767767 -1.767767 
C 1.29895 -2.236584 0.663008 -2.5 0 -2.5 
C -0.663008 -2.5 -1.29895 -2.236584 -1.767767 -1.767767 
C -2.236584 -1.29895 -2.5 -0.663008 -2.5 0 
C -2.5 0.663008 -2.236584 1.29895 -1.767767 1.767767 
C -1.29895 2.236584 -0.663008 2.5 0 2.5 
z
" style="stroke: #bcbd22"/>
    </defs>
    <g clip-path="url(#p83b2ec8802)">
     <use xlink:href="#m309003a961" x="80.88" y="27.907273" style="fill: #bcbd22; stroke: #bcbd22"/>
     <use xlink:href="#m309003a961" x="112.374737" y="200.324019" style="fill: #bcbd22; stroke: #bcbd22"/>
     <use xlink:href="#m309003a961" x="143.869474" y="232.012683" style="fill: #bcbd22; stroke: #bcbd22"/>
     <use xlink:href="#m309003a961" x="175.364211" y="281.087284" style="fill: #bcbd22; stroke: #bcbd22"/>
     <use xlink:href="#m309003a961" x="206.858947" y="316.086689" style="fill: #bcbd22; stroke: #bcbd22"/>
     <use xlink:href="#m309003a961" x="238.353684" y="336.440165" style="fill: #bcbd22; stroke: #bcbd22"/>
     <use xlink:href="#m309003a961" x="269.848421" y="357.682071" style="fill: #bcbd22; stroke: #bcbd22"/>
     <use xlink:href="#m309003a961" x="301.343158" y="358.873312" style="fill: #bcbd22; stroke: #bcbd22"/>
     <use xlink:href="#m309003a961" x="332.837895" y="368.334558" style="fill: #bcbd22; stroke: #bcbd22"/>
     <use xlink:href="#m309003a961" x="364.332632" y="368.553122" style="fill: #bcbd22; stroke: #bcbd22"/>
     <use xlink:href="#m309003a961" x="395.827368" y="369.059954" style="fill: #bcbd22; stroke: #bcbd22"/>
     <use xlink:href="#m309003a961" x="427.322105" y="369.670829" style="fill: #bcbd22; stroke: #bcbd22"/>
     <use xlink:href="#m309003a961" x="458.816842" y="369.702073" style="fill: #bcbd22; stroke: #bcbd22"/>
     <use xlink:href="#m309003a961" x="490.311579" y="369.95119" style="fill: #bcbd22; stroke: #bcbd22"/>
     <use xlink:href="#m309003a961" x="521.806316" y="369.963318" style="fill: #bcbd22; stroke: #bcbd22"/>
     <use xlink:href="#m309003a961" x="553.301053" y="370.029921" style="fill: #bcbd22; stroke: #bcbd22"/>
     <use xlink:href="#m309003a961" x="584.795789" y="370.048571" style="fill: #bcbd22; stroke: #bcbd22"/>
     <use xlink:href="#m309003a961" x="616.290526" y="370.051033" style="fill: #bcbd22; stroke: #bcbd22"/>
     <use xlink:href="#m309003a961" x="647.785263" y="370.051691" style="fill: #bcbd22; stroke: #bcbd22"/>
     <use xlink:href="#m309003a961" x="679.28" y="370.052256" style="fill: #bcbd22; stroke: #bcbd22"/>
    </g>
   </g>
   <g id="line2d_38">
    <path d="M 80.88 86.514211 
L 112.374737 320.317484 
L 143.869474 345.744095 
L 175.364211 348.741454 
L 206.858947 357.255773 
L 238.353684 364.725614 
L 269.848421 368.19187 
L 301.343158 369.018811 
L 332.837895 369.476822 
L 364.332632 369.606808 
L 395.827368 369.639256 
L 427.322105 369.892671 
L 458.816842 370.009846 
L 490.311579 370.020704 
L 521.806316 370.047711 
L 553.301053 370.051426 
L 584.795789 370.051769 
L 616.290526 370.052297 
L 647.785263 370.052605 
L 679.28 370.052692 
" clip-path="url(#p83b2ec8802)" style="fill: none; stroke: #17becf; stroke-width: 1.5; stroke-linecap: square"/>
    <defs>
     <path id="m7cb55d6a99" d="M 0 2.5 
C 0.663008 2.5 1.29895 2.236584 1.767767 1.767767 
C 2.236584 1.29895 2.5 0.663008 2.5 0 
C 2.5 -0.663008 2.236584 -1.29895 1.767767 -1.767767 
C 1.29895 -2.236584 0.663008 -2.5 0 -2.5 
C -0.663008 -2.5 -1.29895 -2.236584 -1.767767 -1.767767 
C -2.236584 -1.29895 -2.5 -0.663008 -2.5 0 
C -2.5 0.663008 -2.236584 1.29895 -1.767767 1.767767 
C -1.29895 2.236584 -0.663008 2.5 0 2.5 
z
" style="stroke: #17becf"/>
    </defs>
    <g clip-path="url(#p83b2ec8802)">
     <use xlink:href="#m7cb55d6a99" x="80.88" y="86.514211" style="fill: #17becf; stroke: #17becf"/>
     <use xlink:href="#m7cb55d6a99" x="112.374737" y="320.317484" style="fill: #17becf; stroke: #17becf"/>
     <use xlink:href="#m7cb55d6a99" x="143.869474" y="345.744095" style="fill: #17becf; stroke: #17becf"/>
     <use xlink:href="#m7cb55d6a99" x="175.364211" y="348.741454" style="fill: #17becf; stroke: #17becf"/>
     <use xlink:href="#m7cb55d6a99" x="206.858947" y="357.255773" style="fill: #17becf; stroke: #17becf"/>
     <use xlink:href="#m7cb55d6a99" x="238.353684" y="364.725614" style="fill: #17becf; stroke: #17becf"/>
     <use xlink:href="#m7cb55d6a99" x="269.848421" y="368.19187" style="fill: #17becf; stroke: #17becf"/>
     <use xlink:href="#m7cb55d6a99" x="301.343158" y="369.018811" style="fill: #17becf; stroke: #17becf"/>
     <use xlink:href="#m7cb55d6a99" x="332.837895" y="369.476822" style="fill: #17becf; stroke: #17becf"/>
     <use xlink:href="#m7cb55d6a99" x="364.332632" y="369.606808" style="fill: #17becf; stroke: #17becf"/>
     <use xlink:href="#m7cb55d6a99" x="395.827368" y="369.639256" style="fill: #17becf; stroke: #17becf"/>
     <use xlink:href="#m7cb55d6a99" x="427.322105" y="369.892671" style="fill: #17becf; stroke: #17becf"/>
     <use xlink:href="#m7cb55d6a99" x="458.816842" y="370.009846" style="fill: #17becf; stroke: #17becf"/>
     <use xlink:href="#m7cb55d6a99" x="490.311579" y="370.020704" style="fill: #17becf; stroke: #17becf"/>
     <use xlink:href="#m7cb55d6a99" x="521.806316" y="370.047711" style="fill: #17becf; stroke: #17becf"/>
     <use xlink:href="#m7cb55d6a99" x="553.301053" y="370.051426" style="fill: #17becf; stroke: #17becf"/>
     <use xlink:href="#m7cb55d6a99" x="584.795789" y="370.051769" style="fill: #17becf; stroke: #17becf"/>
     <use xlink:href="#m7cb55d6a99" x="616.290526" y="370.052297" style="fill: #17becf; stroke: #17becf"/>
     <use xlink:href="#m7cb55d6a99" x="647.785263" y="370.052605" style="fill: #17becf; stroke: #17becf"/>
     <use xlink:href="#m7cb55d6a99" x="679.28" y="370.052692" style="fill: #17becf; stroke: #17becf"/>
    </g>
   </g>
   <g id="patch_3">
    <path d="M 50.96 387.16 
L 50.96 10.8 
" style="fill: none; stroke: #000000; stroke-width: 0.8; stroke-linejoin: miter; stroke-linecap: square"/>
   </g>
   <g id="patch_4">
    <path d="M 709.2 387.16 
L 709.2 10.8 
" style="fill: none; stroke: #000000; stroke-width: 0.8; stroke-linejoin: miter; stroke-linecap: square"/>
   </g>
   <g id="patch_5">
    <path d="M 50.96 387.16 
L 709.2 387.16 
" style="fill: none; stroke: #000000; stroke-width: 0.8; stroke-linejoin: miter; stroke-linecap: square"/>
   </g>
   <g id="patch_6">
    <path d="M 50.96 10.8 
L 709.2 10.8 
" style="fill: none; stroke: #000000; stroke-width: 0.8; stroke-linejoin: miter; stroke-linecap: square"/>
   </g>
   <g id="legend_1">
    <g id="patch_7">
     <path d="M 614.335937 173.596875 
L 702.2 173.596875 
Q 704.2 173.596875 704.2 171.596875 
L 704.2 17.8 
Q 704.2 15.8 702.2 15.8 
L 614.335937 15.8 
Q 612.335937 15.8 612.335937 17.8 
L 612.335937 171.596875 
Q 612.335937 173.596875 614.335937 173.596875 
z
" style="fill: #ffffff; opacity: 0.8; stroke: #cccccc; stroke-linejoin: miter"/>
    </g>
    <g id="line2d_39">
     <path d="M 616.335937 24.29375 
L 626.335937 24.29375 
L 636.335937 24.29375 
" style="fill: none; stroke: #1f77b4; stroke-width: 1.5; stroke-linecap: square"/>
     <g>
      <use xlink:href="#md65d1ac5cd" x="626.335937" y="24.29375" style="fill: #1f77b4; stroke: #1f77b4"/>
     </g>
    </g>
    <g id="text_17">
     <!-- 扰动数据集0 -->
     <g transform="translate(644.335937 27.79375) scale(0.1 -0.1)">
      <defs>
       <path id="MicrosoftYaHei-6270" d="M 2306 3722 
L 3234 3722 
Q 3259 4422 3256 5309 
L 3744 5309 
Q 3744 4434 3716 3722 
L 6169 3722 
L 6169 3253 
L 4663 3253 
L 4663 184 
Q 4663 -178 4969 -178 
L 5319 -178 
Q 5675 -178 5750 197 
Q 5831 591 5863 1128 
Q 6119 1022 6350 941 
Q 6275 384 6206 34 
Q 6081 -647 5400 -647 
L 4875 -647 
Q 4181 -647 4181 141 
L 4181 3253 
L 3694 3253 
Q 3638 641 2244 -872 
Q 2056 -666 1850 -484 
Q 3175 928 3213 3253 
L 2306 3253 
L 2306 3722 
z
M 88 1978 
Q 519 2084 969 2203 
L 969 3609 
L 144 3609 
L 144 4059 
L 969 4059 
L 969 5303 
L 1450 5303 
L 1450 4059 
L 2188 4059 
L 2188 3609 
L 1450 3609 
L 1450 2331 
Q 1825 2434 2213 2547 
Q 2225 2259 2256 2059 
Q 1859 1947 1450 1828 
L 1450 -59 
Q 1450 -759 825 -759 
Q 631 -759 219 -747 
Q 194 -491 138 -228 
Q 531 -272 725 -272 
Q 969 -272 969 34 
L 969 1688 
Q 566 1569 150 1441 
L 88 1978 
z
M 4319 4853 
L 4594 5172 
Q 5138 4797 5638 4391 
L 5319 4022 
Q 4888 4416 4319 4853 
z
" transform="scale(0.015625)"/>
       <path id="MicrosoftYaHei-52a8" d="M 2975 4022 
L 3906 4022 
Q 3916 4650 3913 5309 
L 4425 5309 
Q 4422 4656 4409 4022 
L 6094 4022 
Q 6050 1659 5969 216 
Q 5900 -666 5150 -678 
Q 4763 -678 4306 -659 
Q 4263 -397 4206 -109 
Q 4638 -166 4994 -172 
Q 5456 -172 5475 347 
Q 5569 1897 5588 3547 
L 4400 3547 
Q 4394 3278 4388 3016 
Q 4356 553 2900 -872 
Q 2725 -659 2525 -447 
Q 3831 716 3888 3028 
Q 3894 3284 3900 3547 
L 2975 3547 
L 2975 4022 
z
M 2338 1866 
Q 2731 1016 3063 178 
Q 2788 59 2594 -28 
Q 2550 91 2506 209 
Q 1316 97 338 -16 
L 119 491 
Q 394 647 563 997 
Q 869 1613 1200 2559 
L 144 2559 
L 144 3022 
L 3163 3022 
L 3163 2559 
L 1725 2559 
Q 1191 1228 800 491 
Q 1519 544 2347 631 
Q 2138 1163 1906 1672 
L 2338 1866 
z
M 406 4778 
L 2913 4778 
L 2913 4316 
L 406 4316 
L 406 4778 
z
" transform="scale(0.015625)"/>
       <path id="MicrosoftYaHei-636e" d="M 2900 1334 
L 4188 1334 
L 4188 2128 
L 2731 2128 
Q 2663 206 1844 -841 
Q 1694 -647 1506 -447 
Q 2288 516 2288 2509 
L 2288 4947 
L 5975 4947 
L 5975 3134 
L 5525 3134 
L 5525 3328 
L 2738 3328 
L 2738 2553 
L 4188 2553 
L 4188 3209 
L 4638 3209 
L 4638 2553 
L 6288 2553 
L 6288 2128 
L 4638 2128 
L 4638 1334 
L 5938 1334 
L 5938 -778 
L 5488 -778 
L 5488 -416 
L 3350 -416 
L 3350 -778 
L 2900 -778 
L 2900 1334 
z
M 100 1966 
Q 544 2088 963 2213 
L 963 3641 
L 175 3641 
L 175 4091 
L 963 4091 
L 963 5284 
L 1425 5284 
L 1425 4091 
L 2106 4091 
L 2106 3641 
L 1425 3641 
L 1425 2356 
Q 1722 2450 2006 2547 
Q 2013 2266 2044 2059 
Q 1722 1956 1425 1856 
L 1425 -34 
Q 1425 -741 806 -753 
Q 613 -759 231 -747 
Q 206 -497 156 -228 
Q 500 -266 681 -266 
Q 963 -266 963 53 
L 963 1703 
Q 534 1559 163 1428 
L 100 1966 
z
M 5525 4534 
L 2738 4534 
L 2738 3741 
L 5525 3741 
L 5525 4534 
z
M 5488 922 
L 3350 922 
L 3350 -9 
L 5488 -9 
L 5488 922 
z
" transform="scale(0.015625)"/>
       <path id="MicrosoftYaHei-96c6" d="M 3056 5134 
L 3425 5359 
Q 3719 5034 3906 4722 
L 3619 4541 
L 6013 4541 
L 6013 4153 
L 3644 4153 
L 3644 3709 
L 5738 3709 
L 5738 3347 
L 3644 3347 
L 3644 2903 
L 5738 2903 
L 5738 2541 
L 3644 2541 
L 3644 2084 
L 6031 2084 
L 6031 1697 
L 1475 1697 
L 1475 1459 
L 1038 1459 
L 1038 3684 
Q 716 3309 381 3009 
Q 281 3191 81 3422 
Q 988 4178 1613 5284 
L 2044 5091 
Q 1869 4803 1688 4541 
L 3456 4541 
Q 3288 4825 3056 5134 
z
M 288 1141 
L 2981 1141 
L 2981 1566 
L 3419 1566 
L 3419 1141 
L 6106 1141 
L 6106 741 
L 3906 741 
Q 5000 -31 6338 -303 
Q 6169 -566 6044 -766 
Q 4519 -325 3419 631 
L 3419 -834 
L 2981 -834 
L 2981 638 
Q 1844 -313 356 -778 
Q 225 -584 63 -384 
Q 1406 -56 2475 741 
L 288 741 
L 288 1141 
z
M 1475 2084 
L 3206 2084 
L 3206 2541 
L 1475 2541 
L 1475 2084 
z
M 1475 2903 
L 3206 2903 
L 3206 3347 
L 1475 3347 
L 1475 2903 
z
M 1475 3709 
L 3206 3709 
L 3206 4153 
L 1475 4153 
L 1475 3709 
z
" transform="scale(0.015625)"/>
      </defs>
      <use xlink:href="#MicrosoftYaHei-6270"/>
      <use xlink:href="#MicrosoftYaHei-52a8" x="100"/>
      <use xlink:href="#MicrosoftYaHei-6570" x="200"/>
      <use xlink:href="#MicrosoftYaHei-636e" x="300"/>
      <use xlink:href="#MicrosoftYaHei-96c6" x="400"/>
      <use xlink:href="#MicrosoftYaHei-30" x="500"/>
     </g>
    </g>
    <g id="line2d_40">
     <path d="M 616.335937 39.773438 
L 626.335937 39.773438 
L 636.335937 39.773438 
" style="fill: none; stroke: #ff7f0e; stroke-width: 1.5; stroke-linecap: square"/>
     <g>
      <use xlink:href="#macd230d021" x="626.335937" y="39.773438" style="fill: #ff7f0e; stroke: #ff7f0e"/>
     </g>
    </g>
    <g id="text_18">
     <!-- 扰动数据集1 -->
     <g transform="translate(644.335937 43.273438) scale(0.1 -0.1)">
      <use xlink:href="#MicrosoftYaHei-6270"/>
      <use xlink:href="#MicrosoftYaHei-52a8" x="100"/>
      <use xlink:href="#MicrosoftYaHei-6570" x="200"/>
      <use xlink:href="#MicrosoftYaHei-636e" x="300"/>
      <use xlink:href="#MicrosoftYaHei-96c6" x="400"/>
      <use xlink:href="#MicrosoftYaHei-31" x="500"/>
     </g>
    </g>
    <g id="line2d_41">
     <path d="M 616.335937 55.253125 
L 626.335937 55.253125 
L 636.335937 55.253125 
" style="fill: none; stroke: #2ca02c; stroke-width: 1.5; stroke-linecap: square"/>
     <g>
      <use xlink:href="#m0ca3ea53a0" x="626.335937" y="55.253125" style="fill: #2ca02c; stroke: #2ca02c"/>
     </g>
    </g>
    <g id="text_19">
     <!-- 扰动数据集2 -->
     <g transform="translate(644.335937 58.753125) scale(0.1 -0.1)">
      <use xlink:href="#MicrosoftYaHei-6270"/>
      <use xlink:href="#MicrosoftYaHei-52a8" x="100"/>
      <use xlink:href="#MicrosoftYaHei-6570" x="200"/>
      <use xlink:href="#MicrosoftYaHei-636e" x="300"/>
      <use xlink:href="#MicrosoftYaHei-96c6" x="400"/>
      <use xlink:href="#MicrosoftYaHei-32" x="500"/>
     </g>
    </g>
    <g id="line2d_42">
     <path d="M 616.335937 70.732813 
L 626.335937 70.732813 
L 636.335937 70.732813 
" style="fill: none; stroke: #d62728; stroke-width: 1.5; stroke-linecap: square"/>
     <g>
      <use xlink:href="#mdfc22bbbf7" x="626.335937" y="70.732813" style="fill: #d62728; stroke: #d62728"/>
     </g>
    </g>
    <g id="text_20">
     <!-- 扰动数据集3 -->
     <g transform="translate(644.335937 74.232813) scale(0.1 -0.1)">
      <use xlink:href="#MicrosoftYaHei-6270"/>
      <use xlink:href="#MicrosoftYaHei-52a8" x="100"/>
      <use xlink:href="#MicrosoftYaHei-6570" x="200"/>
      <use xlink:href="#MicrosoftYaHei-636e" x="300"/>
      <use xlink:href="#MicrosoftYaHei-96c6" x="400"/>
      <use xlink:href="#MicrosoftYaHei-33" x="500"/>
     </g>
    </g>
    <g id="line2d_43">
     <path d="M 616.335937 86.2125 
L 626.335937 86.2125 
L 636.335937 86.2125 
" style="fill: none; stroke: #9467bd; stroke-width: 1.5; stroke-linecap: square"/>
     <g>
      <use xlink:href="#m971f835d76" x="626.335937" y="86.2125" style="fill: #9467bd; stroke: #9467bd"/>
     </g>
    </g>
    <g id="text_21">
     <!-- 扰动数据集4 -->
     <g transform="translate(644.335937 89.7125) scale(0.1 -0.1)">
      <use xlink:href="#MicrosoftYaHei-6270"/>
      <use xlink:href="#MicrosoftYaHei-52a8" x="100"/>
      <use xlink:href="#MicrosoftYaHei-6570" x="200"/>
      <use xlink:href="#MicrosoftYaHei-636e" x="300"/>
      <use xlink:href="#MicrosoftYaHei-96c6" x="400"/>
      <use xlink:href="#MicrosoftYaHei-34" x="500"/>
     </g>
    </g>
    <g id="line2d_44">
     <path d="M 616.335937 101.692188 
L 626.335937 101.692188 
L 636.335937 101.692188 
" style="fill: none; stroke: #8c564b; stroke-width: 1.5; stroke-linecap: square"/>
     <g>
      <use xlink:href="#m0116ce152a" x="626.335937" y="101.692188" style="fill: #8c564b; stroke: #8c564b"/>
     </g>
    </g>
    <g id="text_22">
     <!-- 扰动数据集5 -->
     <g transform="translate(644.335937 105.192188) scale(0.1 -0.1)">
      <use xlink:href="#MicrosoftYaHei-6270"/>
      <use xlink:href="#MicrosoftYaHei-52a8" x="100"/>
      <use xlink:href="#MicrosoftYaHei-6570" x="200"/>
      <use xlink:href="#MicrosoftYaHei-636e" x="300"/>
      <use xlink:href="#MicrosoftYaHei-96c6" x="400"/>
      <use xlink:href="#MicrosoftYaHei-35" x="500"/>
     </g>
    </g>
    <g id="line2d_45">
     <path d="M 616.335937 117.171875 
L 626.335937 117.171875 
L 636.335937 117.171875 
" style="fill: none; stroke: #e377c2; stroke-width: 1.5; stroke-linecap: square"/>
     <g>
      <use xlink:href="#mc93271231a" x="626.335937" y="117.171875" style="fill: #e377c2; stroke: #e377c2"/>
     </g>
    </g>
    <g id="text_23">
     <!-- 扰动数据集6 -->
     <g transform="translate(644.335937 120.671875) scale(0.1 -0.1)">
      <defs>
       <path id="MicrosoftYaHei-36" d="M 3181 4219 
Q 2803 4413 2391 4413 
Q 1763 4413 1381 3866 
Q 1000 3319 994 2372 
L 1009 2372 
Q 1353 3038 2106 3038 
Q 2734 3038 3109 2628 
Q 3484 2219 3484 1541 
Q 3484 831 3051 375 
Q 2619 -81 1947 -81 
Q 1209 -81 789 495 
Q 369 1072 369 2131 
Q 369 3413 920 4167 
Q 1472 4922 2372 4922 
Q 2888 4922 3181 4781 
L 3181 4219 
z
M 1031 1584 
Q 1031 1106 1286 765 
Q 1541 425 1963 425 
Q 2363 425 2613 719 
Q 2863 1013 2863 1475 
Q 2863 1975 2627 2253 
Q 2391 2531 1956 2531 
Q 1544 2531 1287 2250 
Q 1031 1969 1031 1584 
z
" transform="scale(0.015625)"/>
      </defs>
      <use xlink:href="#MicrosoftYaHei-6270"/>
      <use xlink:href="#MicrosoftYaHei-52a8" x="100"/>
      <use xlink:href="#MicrosoftYaHei-6570" x="200"/>
      <use xlink:href="#MicrosoftYaHei-636e" x="300"/>
      <use xlink:href="#MicrosoftYaHei-96c6" x="400"/>
      <use xlink:href="#MicrosoftYaHei-36" x="500"/>
     </g>
    </g>
    <g id="line2d_46">
     <path d="M 616.335937 132.651563 
L 626.335937 132.651563 
L 636.335937 132.651563 
" style="fill: none; stroke: #7f7f7f; stroke-width: 1.5; stroke-linecap: square"/>
     <g>
      <use xlink:href="#m3fd43f0489" x="626.335937" y="132.651563" style="fill: #7f7f7f; stroke: #7f7f7f"/>
     </g>
    </g>
    <g id="text_24">
     <!-- 扰动数据集7 -->
     <g transform="translate(644.335937 136.151563) scale(0.1 -0.1)">
      <use xlink:href="#MicrosoftYaHei-6270"/>
      <use xlink:href="#MicrosoftYaHei-52a8" x="100"/>
      <use xlink:href="#MicrosoftYaHei-6570" x="200"/>
      <use xlink:href="#MicrosoftYaHei-636e" x="300"/>
      <use xlink:href="#MicrosoftYaHei-96c6" x="400"/>
      <use xlink:href="#MicrosoftYaHei-37" x="500"/>
     </g>
    </g>
    <g id="line2d_47">
     <path d="M 616.335937 148.13125 
L 626.335937 148.13125 
L 636.335937 148.13125 
" style="fill: none; stroke: #bcbd22; stroke-width: 1.5; stroke-linecap: square"/>
     <g>
      <use xlink:href="#m309003a961" x="626.335937" y="148.13125" style="fill: #bcbd22; stroke: #bcbd22"/>
     </g>
    </g>
    <g id="text_25">
     <!-- 扰动数据集8 -->
     <g transform="translate(644.335937 151.63125) scale(0.1 -0.1)">
      <defs>
       <path id="MicrosoftYaHei-38" d="M 306 1350 
Q 306 1769 556 2122 
Q 806 2475 1200 2625 
Q 884 2803 700 3081 
Q 516 3359 516 3684 
Q 516 4028 692 4312 
Q 869 4597 1183 4759 
Q 1497 4922 1875 4922 
Q 2256 4922 2572 4761 
Q 2888 4600 3063 4315 
Q 3238 4031 3238 3684 
Q 3238 3366 3058 3086 
Q 2878 2806 2559 2625 
Q 2953 2472 3200 2119 
Q 3447 1766 3447 1350 
Q 3447 938 3250 611 
Q 3053 284 2690 103 
Q 2328 -78 1875 -78 
Q 1425 -78 1065 103 
Q 706 284 506 612 
Q 306 941 306 1350 
z
M 906 1378 
Q 906 947 1172 687 
Q 1438 428 1878 428 
Q 2309 428 2582 692 
Q 2856 956 2856 1378 
Q 2856 1778 2579 2051 
Q 2303 2325 1878 2325 
Q 1456 2325 1181 2058 
Q 906 1791 906 1378 
z
M 1081 3634 
Q 1081 3309 1312 3076 
Q 1544 2844 1878 2844 
Q 2206 2844 2445 3078 
Q 2684 3313 2684 3634 
Q 2684 3963 2454 4191 
Q 2225 4419 1878 4419 
Q 1534 4419 1307 4195 
Q 1081 3972 1081 3634 
z
" transform="scale(0.015625)"/>
      </defs>
      <use xlink:href="#MicrosoftYaHei-6270"/>
      <use xlink:href="#MicrosoftYaHei-52a8" x="100"/>
      <use xlink:href="#MicrosoftYaHei-6570" x="200"/>
      <use xlink:href="#MicrosoftYaHei-636e" x="300"/>
      <use xlink:href="#MicrosoftYaHei-96c6" x="400"/>
      <use xlink:href="#MicrosoftYaHei-38" x="500"/>
     </g>
    </g>
    <g id="line2d_48">
     <path d="M 616.335937 163.610938 
L 626.335937 163.610938 
L 636.335937 163.610938 
" style="fill: none; stroke: #17becf; stroke-width: 1.5; stroke-linecap: square"/>
     <g>
      <use xlink:href="#m7cb55d6a99" x="626.335937" y="163.610938" style="fill: #17becf; stroke: #17becf"/>
     </g>
    </g>
    <g id="text_26">
     <!-- 扰动数据集9 -->
     <g transform="translate(644.335937 167.110938) scale(0.1 -0.1)">
      <defs>
       <path id="MicrosoftYaHei-39" d="M 578 656 
Q 978 425 1441 425 
Q 2091 425 2448 937 
Q 2806 1450 2806 2394 
Q 2800 2388 2794 2394 
Q 2475 1788 1722 1788 
Q 1113 1788 713 2206 
Q 313 2625 313 3294 
Q 313 4006 750 4464 
Q 1188 4922 1884 4922 
Q 2606 4922 3012 4355 
Q 3419 3788 3419 2703 
Q 3419 1363 2894 641 
Q 2369 -81 1441 -81 
Q 931 -81 578 84 
L 578 656 
z
M 931 3372 
Q 931 2884 1181 2598 
Q 1431 2313 1872 2313 
Q 2253 2313 2512 2573 
Q 2772 2834 2772 3206 
Q 2772 3728 2514 4070 
Q 2256 4413 1834 4413 
Q 1444 4413 1187 4116 
Q 931 3819 931 3372 
z
" transform="scale(0.015625)"/>
      </defs>
      <use xlink:href="#MicrosoftYaHei-6270"/>
      <use xlink:href="#MicrosoftYaHei-52a8" x="100"/>
      <use xlink:href="#MicrosoftYaHei-6570" x="200"/>
      <use xlink:href="#MicrosoftYaHei-636e" x="300"/>
      <use xlink:href="#MicrosoftYaHei-96c6" x="400"/>
      <use xlink:href="#MicrosoftYaHei-39" x="500"/>
     </g>
    </g>
   </g>
  </g>
 </g>
 <defs>
  <clipPath id="p83b2ec8802">
   <rect x="50.96" y="10.8" width="658.24" height="376.36"/>
  </clipPath>
 </defs>
</svg>
